999
dxfrw 0.5.10
0
SECTION
2
HEADER
9
$ACADVER
1
AC1021
9
$HANDSEED
5
20000
9
$DWGCODEPAGE
3
ANSI_1252
9
$INSBASE
10
0
20
0
30
0
9
$EXTMIN
10
-63.4521604938
20
-28.4369444444
30
0
9
$EXTMAX
10
44.5478395062
20
30.1730555556
30
0
9
$LIMMIN
10
0
20
0
9
$LIMMAX
10
420
20
297
9
$ORTHOMODE
70
0
9
$LTSCALE
40
1
9
$TEXTSTYLE
7
STANDARD
9
$CLAYER
8
0
9
$DIMASZ
40
2.5
9
$DIMLFAC
40
1
9
$DIMSCALE
40
1
9
$DIMEXO
40
0.625
9
$DIMEXE
40
1.25
9
$DIMTXT
40
2.5
9
$DIMTSZ
40
0
9
$DIMAUNIT
70
0
9
$DIMADEC
70
0
9
$DIMLUNIT
70
2
9
$DIMSTYLE
2
STANDARD
9
$DIMGAP
40
0.625
9
$DIMTIH
70
0
9
$LUNITS
70
2
9
$LUPREC
70
4
9
$AUNITS
70
0
9
$AUPREC
70
2
9
$SPLINESEGS
70
8
9
$GRIDMODE
70
0
9
$SNAPSTYLE
70
0
9
$PINSBASE
10
0
20
0
30
0
9
$PLIMMIN
10
0
20
0
9
$PLIMMAX
10
297
20
210
9
$INSUNITS
70
0
9
$PSVPSCALE
40
0
0
ENDSEC
0
SECTION
2
CLASSES
0
ENDSEC
0
SECTION
2
TABLES
0
TABLE
2
VPORT
5
8
330
0
100
AcDbSymbolTable
70
1
0
VPORT
5
31
330
2
100
AcDbSymbolTableRecord
100
AcDbViewportTableRecord
2
*ACTIVE
70
0
10
0
20
0
11
1
21
1
12
43.1996360789
22
30.7334553818
13
0
23
0
14
10
24
10
15
10
25
10
16
0
26
0
36
1
17
0
27
0
37
0
40
111.331633552
41
1.73614190687
42
50
43
0
44
0
50
0
51
0
71
0
72
100
73
1
74
3
75
0
76
0
77
0
78
0
281
0
65
1
110
0
120
0
130
0
111
1
121
0
131
0
112
0
122
1
132
0
79
0
146
0
348
10020
60
7
61
5
292
1
282
1
141
0
142
0
63
250
421
3358443
0
ENDTAB
0
TABLE
2
LTYPE
5
5
330
0
100
AcDbSymbolTable
70
4
0
LTYPE
5
14
330
5
100
AcDbSymbolTableRecord
100
AcDbLinetypeTableRecord
2
ByBlock
70
0
3

72
65
73
0
40
0
0
LTYPE
5
15
330
5
100
AcDbSymbolTableRecord
100
AcDbLinetypeTableRecord
2
ByLayer
70
0
3

72
65
73
0
40
0
0
LTYPE
5
16
330
5
100
AcDbSymbolTableRecord
100
AcDbLinetypeTableRecord
2
Continuous
70
0
3
Solid line
72
65
73
0
40
0
0
LTYPE
5
32
330
5
100
AcDbSymbolTableRecord
100
AcDbLinetypeTableRecord
2
DOT
70
0
3
Dot . . . . . . . . . . . . . . . . . . . . . .
72
65
73
2
40
6.35
49
0
74
0
49
-6.35
74
0
0
LTYPE
5
33
330
5
100
AcDbSymbolTableRecord
100
AcDbLinetypeTableRecord
2
DOT2
70
0
3
Dot (.5x) .....................................
72
65
73
2
40
3.175
49
0
74
0
49
-3.175
74
0
0
LTYPE
5
34
330
5
100
AcDbSymbolTableRecord
100
AcDbLinetypeTableRecord
2
DOTX2
70
0
3
Dot (2x) .  .  .  .  .  .  .  .  .  .  .  .  .
72
65
73
2
40
12.7
49
0
74
0
49
-12.7
74
0
0
LTYPE
5
35
330
5
100
AcDbSymbolTableRecord
100
AcDbLinetypeTableRecord
2
DASHED
70
0
3
Dot . . . . . . . . . . . . . . . . . . . . . .
72
65
73
2
40
19.05
49
12.7
74
0
49
-6.35
74
0
0
LTYPE
5
36
330
5
100
AcDbSymbolTableRecord
100
AcDbLinetypeTableRecord
2
DASHED2
70
0
3
Dashed (.5x) _ _ _ _ _ _ _ _ _ _ _ _ _ _ _ _ _
72
65
73
2
40
9.525
49
6.35
74
0
49
-3.175
74
0
0
LTYPE
5
37
330
5
100
AcDbSymbolTableRecord
100
AcDbLinetypeTableRecord
2
DASHEDX2
70
0
3
Dashed (2x) ____  ____  ____  ____  ____  ___
72
65
73
2
40
38.1
49
25.4
74
0
49
-12.7
74
0
0
LTYPE
5
38
330
5
100
AcDbSymbolTableRecord
100
AcDbLinetypeTableRecord
2
DASHDOT
70
0
3
Dash dot __ . __ . __ . __ . __ . __ . __ . __
72
65
73
4
40
25.4
49
12.7
74
0
49
-6.35
74
0
49
0
74
0
49
-6.35
74
0
0
LTYPE
5
39
330
5
100
AcDbSymbolTableRecord
100
AcDbLinetypeTableRecord
2
DASHDOT2
70
0
3
Dash dot (.5x) _._._._._._._._._._._._._._._.
72
65
73
4
40
12.7
49
6.35
74
0
49
-3.175
74
0
49
0
74
0
49
-3.175
74
0
0
LTYPE
5
3A
330
5
100
AcDbSymbolTableRecord
100
AcDbLinetypeTableRecord
2
DASHDOTX2
70
0
3
Dash dot (2x) ____  .  ____  .  ____  .  ___
72
65
73
4
40
50.8
49
25.4
74
0
49
-12.7
74
0
49
0
74
0
49
-12.7
74
0
0
LTYPE
5
3B
330
5
100
AcDbSymbolTableRecord
100
AcDbLinetypeTableRecord
2
DIVIDE
70
0
3
Divide ____ . . ____ . . ____ . . ____ . . ____
72
65
73
6
40
31.75
49
12.7
74
0
49
-6.35
74
0
49
0
74
0
49
-6.35
74
0
49
0
74
0
49
-6.35
74
0
0
LTYPE
5
3C
330
5
100
AcDbSymbolTableRecord
100
AcDbLinetypeTableRecord
2
DIVIDE2
70
0
3
Divide (.5x) __..__..__..__..__..__..__..__.._
72
65
73
6
40
15.875
49
6.35
74
0
49
-3.175
74
0
49
0
74
0
49
-3.175
74
0
49
0
74
0
49
-3.175
74
0
0
LTYPE
5
3D
330
5
100
AcDbSymbolTableRecord
100
AcDbLinetypeTableRecord
2
DIVIDEX2
70
0
3
Divide (2x) ________  .  .  ________  .  .  _
72
65
73
6
40
63.5
49
25.4
74
0
49
-12.7
74
0
49
0
74
0
49
-12.7
74
0
49
0
74
0
49
-12.7
74
0
0
LTYPE
5
3E
330
5
100
AcDbSymbolTableRecord
100
AcDbLinetypeTableRecord
2
BORDER
70
0
3
Border __ __ . __ __ . __ __ . __ __ . __ __ .
72
65
73
6
40
44.45
49
12.7
74
0
49
-6.35
74
0
49
12.7
74
0
49
-6.35
74
0
49
0
74
0
49
-6.35
74
0
0
LTYPE
5
3F
330
5
100
AcDbSymbolTableRecord
100
AcDbLinetypeTableRecord
2
BORDER2
70
0
3
Border (.5x) __.__.__.__.__.__.__.__.__.__.__.
72
65
73
6
40
22.225
49
6.35
74
0
49
-3.175
74
0
49
6.35
74
0
49
-3.175
74
0
49
0
74
0
49
-3.175
74
0
0
LTYPE
5
40
330
5
100
AcDbSymbolTableRecord
100
AcDbLinetypeTableRecord
2
BORDERX2
70
0
3
Border (2x) ____  ____  .  ____  ____  .  ___
72
65
73
6
40
88.9
49
25.4
74
0
49
-12.7
74
0
49
25.4
74
0
49
-12.7
74
0
49
0
74
0
49
-12.7
74
0
0
LTYPE
5
41
330
5
100
AcDbSymbolTableRecord
100
AcDbLinetypeTableRecord
2
CENTER
70
0
3
Center ____ _ ____ _ ____ _ ____ _ ____ _ ____
72
65
73
4
40
50.8
49
31.75
74
0
49
-6.35
74
0
49
6.35
74
0
49
-6.35
74
0
0
LTYPE
5
42
330
5
100
AcDbSymbolTableRecord
100
AcDbLinetypeTableRecord
2
CENTER2
70
0
3
Center (.5x) ___ _ ___ _ ___ _ ___ _ ___ _ ___
72
65
73
4
40
28.575
49
19.05
74
0
49
-3.175
74
0
49
3.175
74
0
49
-3.175
74
0
0
LTYPE
5
43
330
5
100
AcDbSymbolTableRecord
100
AcDbLinetypeTableRecord
2
CENTERX2
70
0
3
Center (2x) ________  __  ________  __  _____
72
65
73
4
40
101.6
49
63.5
74
0
49
-12.7
74
0
49
12.7
74
0
49
-12.7
74
0
0
ENDTAB
0
TABLE
2
LAYER
5
2
330
0
100
AcDbSymbolTable
70
1
0
LAYER
5
10
330
2
100
AcDbSymbolTableRecord
100
AcDbLayerTableRecord
2
0
70
0
62
7
6
CONTINUOUS
370
-3
390
F
0
LAYER
5
44
330
2
100
AcDbSymbolTableRecord
100
AcDbLayerTableRecord
2
dimensions
70
1
62
7
6
CONTINUOUS
370
-3
390
F
0
LAYER
5
45
330
2
100
AcDbSymbolTableRecord
100
AcDbLayerTableRecord
2
text
70
0
62
7
6
CONTINUOUS
370
-3
390
F
0
LAYER
5
46
330
2
100
AcDbSymbolTableRecord
100
AcDbLayerTableRecord
2
s00f-#def-outline
70
0
62
7
6
CONTINUOUS
370
-3
390
F
0
ENDTAB
0
TABLE
2
STYLE
5
3
330
0
100
AcDbSymbolTable
70
3
0
STYLE
5
47
330
2
100
AcDbSymbolTableRecord
100
AcDbTextStyleTableRecord
2
Standard
70
0
40
0
41
1
50
0
71
0
42
1
3
txt
4

0
ENDTAB
0
TABLE
2
VIEW
5
6
330
0
100
AcDbSymbolTable
70
0
0
ENDTAB
0
TABLE
2
UCS
5
7
330
0
100
AcDbSymbolTable
70
0
0
ENDTAB
0
TABLE
2
APPID
5
9
330
0
100
AcDbSymbolTable
70
1
0
APPID
5
12
330
9
100
AcDbSymbolTableRecord
100
AcDbRegAppTableRecord
2
ACAD
70
0
0
ENDTAB
0
TABLE
2
DIMSTYLE
5
A
330
0
100
AcDbSymbolTable
70
1
100
AcDbDimStyleTable
71
1
0
DIMSTYLE
105
48
330
A
100
AcDbSymbolTableRecord
100
AcDbDimStyleTableRecord
2
Standard
70
0
40
1
41
2.5
42
0.625
43
0.38
44
1.25
45
0
46
0
47
0
48
0
140
2.5
141
0.09
142
0
143
25.4
144
1
145
0
146
1
147
0.625
148
0
71
0
72
0
73
0
74
1
75
0
76
0
77
0
78
0
79
0
170
0
171
2
172
0
173
0
174
0
175
0
176
0
177
0
178
0
179
0
271
4
272
4
273
2
274
2
275
0
276
0
277
2
278
46
279
0
280
0
281
0
282
0
283
1
284
0
285
0
286
0
288
0
289
3
340
Standard
341

371
-2
372
-2
0
ENDTAB
0
TABLE
2
BLOCK_RECORD
5
1
330
0
100
AcDbSymbolTable
70
2
0
BLOCK_RECORD
5
1F
330
1
100
AcDbSymbolTableRecord
100
AcDbBlockTableRecord
2
*Model_Space
70
0
280
1
281
0
0
BLOCK_RECORD
5
1E
330
1
100
AcDbSymbolTableRecord
100
AcDbBlockTableRecord
2
*Paper_Space
70
0
280
1
281
0
0
BLOCK_RECORD
5
49
330
1
100
AcDbSymbolTableRecord
100
AcDbBlockTableRecord
2
*D6
70
0
280
1
281
0
0
BLOCK_RECORD
5
4C
330
1
100
AcDbSymbolTableRecord
100
AcDbBlockTableRecord
2
*D15
70
0
280
1
281
0
0
BLOCK_RECORD
5
4F
330
1
100
AcDbSymbolTableRecord
100
AcDbBlockTableRecord
2
*D4
70
0
280
1
281
0
0
BLOCK_RECORD
5
52
330
1
100
AcDbSymbolTableRecord
100
AcDbBlockTableRecord
2
*D7
70
0
280
1
281
0
0
BLOCK_RECORD
5
55
330
1
100
AcDbSymbolTableRecord
100
AcDbBlockTableRecord
2
*D2
70
0
280
1
281
0
0
BLOCK_RECORD
5
58
330
1
100
AcDbSymbolTableRecord
100
AcDbBlockTableRecord
2
*D3
70
0
280
1
281
0
0
BLOCK_RECORD
5
5B
330
1
100
AcDbSymbolTableRecord
100
AcDbBlockTableRecord
2
*D5
70
0
280
1
281
0
0
BLOCK_RECORD
5
5E
330
1
100
AcDbSymbolTableRecord
100
AcDbBlockTableRecord
2
*D10
70
0
280
1
281
0
0
BLOCK_RECORD
5
61
330
1
100
AcDbSymbolTableRecord
100
AcDbBlockTableRecord
2
*D11
70
0
280
1
281
0
0
BLOCK_RECORD
5
64
330
1
100
AcDbSymbolTableRecord
100
AcDbBlockTableRecord
2
*D16
70
0
280
1
281
0
0
BLOCK_RECORD
5
67
330
1
100
AcDbSymbolTableRecord
100
AcDbBlockTableRecord
2
*D9
70
0
280
1
281
0
0
BLOCK_RECORD
5
6A
330
1
100
AcDbSymbolTableRecord
100
AcDbBlockTableRecord
2
*D13
70
0
280
1
281
0
0
BLOCK_RECORD
5
6D
330
1
100
AcDbSymbolTableRecord
100
AcDbBlockTableRecord
2
*D1
70
0
280
1
281
0
0
BLOCK_RECORD
5
70
330
1
100
AcDbSymbolTableRecord
100
AcDbBlockTableRecord
2
*D8
70
0
280
1
281
0
0
BLOCK_RECORD
5
73
330
1
100
AcDbSymbolTableRecord
100
AcDbBlockTableRecord
2
*D14
70
0
280
1
281
0
0
BLOCK_RECORD
5
76
330
1
100
AcDbSymbolTableRecord
100
AcDbBlockTableRecord
2
*D12
70
0
280
1
281
0
0
ENDTAB
0
ENDSEC
0
SECTION
2
BLOCKS
0
BLOCK
5
20
330
1F
100
AcDbEntity
8
0
100
AcDbBlockBegin
2
*Model_Space
70
0
10
0
20
0
30
0
3
*Model_Space
1

0
ENDBLK
5
21
330
1F
100
AcDbEntity
8
0
100
AcDbBlockEnd
0
BLOCK
5
1C
330
1B
100
AcDbEntity
8
0
100
AcDbBlockBegin
2
*Paper_Space
70
0
10
0
20
0
30
0
3
*Paper_Space
1

0
ENDBLK
5
1D
330
1F
100
AcDbEntity
8
0
100
AcDbBlockEnd
0
BLOCK
5
4A
330
49
100
AcDbEntity
8
0
100
AcDbBlockBegin
2
*D6
70
1
10
0
20
0
3
*D6
1

0
LINE
5
79
100
AcDbEntity
8
dimensions
6
CONTINUOUS
62
7
370
0
100
AcDbLine
10
-46.0731481481
20
-9.58694444444
11
-46.0731481481
21
-28.4369444444
0
SOLID
5
7A
100
AcDbEntity
8
dimensions
6
CONTINUOUS
62
7
370
0
100
AcDbTrace
10
-46.0731481481
20
-9.58694444444
30
0
11
-45.6568634904
21
-12.0869444444
31
0
12
-46.4894328059
22
-12.0869444444
32
0
13
-46.4894328059
23
-12.0869444444
33
0
0
SOLID
5
7B
100
AcDbEntity
8
dimensions
6
CONTINUOUS
62
7
370
0
100
AcDbTrace
10
-46.0731481481
20
-28.4369444444
30
0
11
-46.4894328059
21
-25.9369444444
31
0
12
-45.6568634904
22
-25.9369444444
32
0
13
-45.6568634904
23
-25.9369444444
33
0
0
MTEXT
5
7C
100
AcDbEntity
8
dimensions
6
CONTINUOUS
62
7
370
0
100
AcDbMText
10
-46.0731481481
20
-18.7225925926
30
0
40
2.5
41
7.22222222222
71
5
72
1
1
18.85
7
standard
210
0
220
0
230
1
50
90
73
2
44
1
0
LINE
5
7D
100
AcDbEntity
8
dimensions
6
CONTINUOUS
62
7
370
0
100
AcDbLine
10
-47.3771604938
20
-9.58694444444
11
-44.8231481481
21
-9.58694444444
0
LINE
5
7E
100
AcDbEntity
8
dimensions
6
CONTINUOUS
62
7
370
0
100
AcDbLine
10
-45.4481481481
20
-28.4369444444
11
-44.8231481481
21
-28.4369444444
0
ENDBLK
5
4B
330
49
100
AcDbEntity
8
0
100
AcDbBlockEnd
0
BLOCK
5
4D
330
4C
100
AcDbEntity
8
0
100
AcDbBlockBegin
2
*D15
70
1
10
0
20
0
3
*D15
1

0
LINE
5
7F
100
AcDbEntity
8
dimensions
6
CONTINUOUS
62
7
370
0
100
AcDbLine
10
7.94024674814
20
9.65408229607
11
-0.844567735797
21
-0.727971184954
0
SOLID
5
80
100
AcDbEntity
8
dimensions
6
CONTINUOUS
62
7
370
0
100
AcDbTrace
10
4.71053554081
20
5.83715086922
30
0
11
6.00760514592
21
8.01451242757
31
0
12
6.64317714303
22
7.47672073771
32
0
13
6.64317714303
23
7.47672073771
33
0
0
SOLID
5
81
100
AcDbEntity
8
dimensions
6
CONTINUOUS
62
7
370
0
100
AcDbTrace
10
2.38514347153
20
3.08896024189
30
0
11
1.08807386642
21
0.911598683539
31
0
12
0.452501869315
22
1.4493903734
32
0
13
0.452501869315
23
1.4493903734
33
0
0
MTEXT
5
82
100
AcDbEntity
8
dimensions
6
CONTINUOUS
62
7
370
0
100
AcDbMText
10
10.9885458182
20
13.2566175607
30
0
40
2.5
41
8.33333333333
71
5
72
1
1
%%C3.60
7
standard
210
0
220
0
230
1
50
49.7636416907
73
2
44
1
0
ENDBLK
5
4E
330
4C
100
AcDbEntity
8
0
100
AcDbBlockEnd
0
BLOCK
5
50
330
4F
100
AcDbEntity
8
0
100
AcDbBlockBegin
2
*D4
70
1
10
0
20
0
3
*D4
1

0
LINE
5
83
100
AcDbEntity
8
dimensions
6
CONTINUOUS
62
7
370
0
100
AcDbLine
10
-52.4521604938
20
17.194537037
11
-63.4521604938
21
17.194537037
0
SOLID
5
84
100
AcDbEntity
8
dimensions
6
CONTINUOUS
62
7
370
0
100
AcDbTrace
10
-52.4521604938
20
17.194537037
30
0
11
-54.9521604938
21
16.7782523793
31
0
12
-54.9521604938
22
17.6108216948
32
0
13
-54.9521604938
23
17.6108216948
33
0
0
SOLID
5
85
100
AcDbEntity
8
dimensions
6
CONTINUOUS
62
7
370
0
100
AcDbTrace
10
-63.4521604938
20
17.194537037
30
0
11
-60.9521604938
21
17.6108216948
31
0
12
-60.9521604938
22
16.7782523793
32
0
13
-60.9521604938
23
16.7782523793
33
0
0
MTEXT
5
86
100
AcDbEntity
8
dimensions
6
CONTINUOUS
62
7
370
0
100
AcDbMText
10
-58.2415123457
20
17.194537037
30
0
40
2.5
41
6.66666666667
71
5
72
1
1
11.00
7
standard
210
0
220
0
230
1
50
360
73
2
44
1
0
LINE
5
87
100
AcDbEntity
8
dimensions
6
CONTINUOUS
62
7
370
0
100
AcDbLine
10
-52.4521604938
20
5.08805555556
11
-52.4521604938
21
18.444537037
0
LINE
5
88
100
AcDbEntity
8
dimensions
6
CONTINUOUS
62
7
370
0
100
AcDbLine
10
-63.4521604938
20
17.819537037
11
-63.4521604938
21
18.444537037
0
ENDBLK
5
51
330
4F
100
AcDbEntity
8
0
100
AcDbBlockEnd
0
BLOCK
5
53
330
52
100
AcDbEntity
8
0
100
AcDbBlockBegin
2
*D7
70
1
10
0
20
0
3
*D7
1

0
LINE
5
89
100
AcDbEntity
8
dimensions
6
CONTINUOUS
62
7
370
0
100
AcDbLine
10
-48.0021604938
20
-14.7952777778
11
-63.4521604938
21
-14.7952777778
0
SOLID
5
8A
100
AcDbEntity
8
dimensions
6
CONTINUOUS
62
7
370
0
100
AcDbTrace
10
-48.0021604938
20
-14.7952777778
30
0
11
-50.5021604938
21
-15.2115624356
31
0
12
-50.5021604938
22
-14.37899312
32
0
13
-50.5021604938
23
-14.37899312
33
0
0
SOLID
5
8B
100
AcDbEntity
8
dimensions
6
CONTINUOUS
62
7
370
0
100
AcDbTrace
10
-63.4521604938
20
-14.7952777778
30
0
11
-60.9521604938
21
-14.37899312
31
0
12
-60.9521604938
22
-15.2115624356
32
0
13
-60.9521604938
23
-15.2115624356
33
0
0
MTEXT
5
8C
100
AcDbEntity
8
dimensions
6
CONTINUOUS
62
7
370
0
100
AcDbMText
10
-53.7016975309
20
-14.7952777778
30
0
40
2.5
41
7.5
71
5
72
1
1
15.45
7
standard
210
0
220
0
230
1
50
360
73
2
44
1
0
LINE
5
8D
100
AcDbEntity
8
dimensions
6
CONTINUOUS
62
7
370
0
100
AcDbLine
10
-48.0021604938
20
-10.2119444444
11
-48.0021604938
21
-16.0452777778
0
LINE
5
8E
100
AcDbEntity
8
dimensions
6
CONTINUOUS
62
7
370
0
100
AcDbLine
10
-63.4521604938
20
-15.4202777778
11
-63.4521604938
21
-16.0452777778
0
ENDBLK
5
54
330
52
100
AcDbEntity
8
0
100
AcDbBlockEnd
0
BLOCK
5
56
330
55
100
AcDbEntity
8
0
100
AcDbBlockBegin
2
*D2
70
1
10
0
20
0
3
*D2
1

0
LINE
5
8F
100
AcDbEntity
8
dimensions
6
CONTINUOUS
62
7
370
0
100
AcDbLine
10
-1.52716049383
20
-9.58694444444
11
-5.04567901235
21
-9.58694444444
0
LINE
5
90
100
AcDbEntity
8
dimensions
6
CONTINUOUS
62
7
370
0
100
AcDbLine
10
-1.52716049383
20
18.5130555556
11
-5.04567901235
21
18.5130555556
0
LINE
5
91
100
AcDbEntity
8
dimensions
6
CONTINUOUS
62
7
370
0
100
AcDbLine
10
-3.79567901235
20
-9.58694444444
11
-3.79567901235
21
18.5130555556
0
SOLID
5
92
100
AcDbEntity
8
dimensions
6
CONTINUOUS
62
7
370
0
100
AcDbTrace
10
-3.79567901235
20
-9.58694444444
30
0
11
-4.21196367012
21
-7.08694444444
31
0
12
-3.37939435457
22
-7.08694444444
32
0
13
-3.37939435457
23
-7.08694444444
33
0
0
SOLID
5
93
100
AcDbEntity
8
dimensions
6
CONTINUOUS
62
7
370
0
100
AcDbTrace
10
-3.79567901235
20
18.5130555556
30
0
11
-3.37939435457
21
16.0130555556
31
0
12
-4.21196367012
22
16.0130555556
32
0
13
-4.21196367012
23
16.0130555556
33
0
0
MTEXT
5
94
100
AcDbEntity
8
dimensions
6
CONTINUOUS
62
7
370
0
100
AcDbMText
10
-3.79567901235
20
13.6258641975
30
0
40
2.5
41
7.22222222222
71
5
72
1
1
28.10
7
standard
210
0
220
0
230
1
50
90
73
2
44
1
0
ENDBLK
5
57
330
55
100
AcDbEntity
8
0
100
AcDbBlockEnd
0
BLOCK
5
59
330
58
100
AcDbEntity
8
0
100
AcDbBlockBegin
2
*D3
70
1
10
0
20
0
3
*D3
1

0
LINE
5
95
100
AcDbEntity
8
dimensions
6
CONTINUOUS
62
7
370
0
100
AcDbLine
10
-52.4521604938
20
5.08805555556
11
-52.4521604938
21
22.8812654321
0
LINE
5
96
100
AcDbEntity
8
dimensions
6
CONTINUOUS
62
7
370
0
100
AcDbLine
10
3.54783950617
20
5.08805555556
11
3.54783950617
21
22.8812654321
0
LINE
5
97
100
AcDbEntity
8
dimensions
6
CONTINUOUS
62
7
370
0
100
AcDbLine
10
-52.4521604938
20
21.6312654321
11
3.54783950617
21
21.6312654321
0
SOLID
5
98
100
AcDbEntity
8
dimensions
6
CONTINUOUS
62
7
370
0
100
AcDbTrace
10
-52.4521604938
20
21.6312654321
30
0
11
-49.9521604938
21
22.0475500899
31
0
12
-49.9521604938
22
21.2149807743
32
0
13
-49.9521604938
23
21.2149807743
33
0
0
SOLID
5
99
100
AcDbEntity
8
dimensions
6
CONTINUOUS
62
7
370
0
100
AcDbTrace
10
3.54783950617
20
21.6312654321
30
0
11
1.04783950617
21
21.2149807743
31
0
12
1.04783950617
22
22.0475500899
32
0
13
1.04783950617
23
22.0475500899
33
0
0
MTEXT
5
9A
100
AcDbEntity
8
dimensions
6
CONTINUOUS
62
7
370
0
100
AcDbMText
10
-24.3557098765
20
21.6312654321
30
0
40
2.5
41
7.77777777778
71
5
72
1
1
56.00
7
standard
210
0
220
0
230
1
50
0
73
2
44
1
0
ENDBLK
5
5A
330
58
100
AcDbEntity
8
0
100
AcDbBlockEnd
0
BLOCK
5
5C
330
5B
100
AcDbEntity
8
0
100
AcDbBlockBegin
2
*D5
70
1
10
0
20
0
3
*D5
1

0
LINE
5
9B
100
AcDbEntity
8
dimensions
6
CONTINUOUS
62
7
370
0
100
AcDbLine
10
-55.8279320988
20
4.46305555556
11
-55.8279320988
21
-28.4369444444
0
SOLID
5
9C
100
AcDbEntity
8
dimensions
6
CONTINUOUS
62
7
370
0
100
AcDbTrace
10
-55.8279320988
20
4.46305555556
30
0
11
-55.411647441
21
1.96305555556
31
0
12
-56.2442167565
22
1.96305555556
32
0
13
-56.2442167565
23
1.96305555556
33
0
0
SOLID
5
9D
100
AcDbEntity
8
dimensions
6
CONTINUOUS
62
7
370
0
100
AcDbTrace
10
-55.8279320988
20
-28.4369444444
30
0
11
-56.2442167565
21
-25.9369444444
31
0
12
-55.411647441
22
-25.9369444444
32
0
13
-55.411647441
23
-25.9369444444
33
0
0
MTEXT
5
9E
100
AcDbEntity
8
dimensions
6
CONTINUOUS
62
7
370
0
100
AcDbMText
10
-55.8279320988
20
-6.29635802469
30
0
40
2.5
41
7.77777777778
71
5
72
1
1
32.90
7
standard
210
0
220
0
230
1
50
90
73
2
44
1
0
LINE
5
9F
100
AcDbEntity
8
dimensions
6
CONTINUOUS
62
7
370
0
100
AcDbLine
10
-53.0771604938
20
4.46305555556
11
-57.0779320988
21
4.46305555556
0
LINE
5
A0
100
AcDbEntity
8
dimensions
6
CONTINUOUS
62
7
370
0
100
AcDbLine
10
-56.4529320988
20
-28.4369444444
11
-57.0779320988
21
-28.4369444444
0
ENDBLK
5
5D
330
5B
100
AcDbEntity
8
0
100
AcDbBlockEnd
0
BLOCK
5
5F
330
5E
100
AcDbEntity
8
0
100
AcDbBlockBegin
2
*D10
70
1
10
0
20
0
3
*D10
1

0
LINE
5
A1
100
AcDbEntity
8
dimensions
6
CONTINUOUS
62
7
370
0
100
AcDbLine
10
10.0478395062
20
-12.5369444444
11
10.0478395062
21
-28.4369444444
0
SOLID
5
A2
100
AcDbEntity
8
dimensions
6
CONTINUOUS
62
7
370
0
100
AcDbTrace
10
10.0478395062
20
-12.5369444444
30
0
11
10.4641241639
21
-15.0369444444
31
0
12
9.6315548484
22
-15.0369444444
32
0
13
9.6315548484
23
-15.0369444444
33
0
0
SOLID
5
A3
100
AcDbEntity
8
dimensions
6
CONTINUOUS
62
7
370
0
100
AcDbTrace
10
10.0478395062
20
-28.4369444444
30
0
11
9.6315548484
21
-25.9369444444
31
0
12
10.4641241639
22
-25.9369444444
32
0
13
10.4641241639
23
-25.9369444444
33
0
0
MTEXT
5
A4
100
AcDbEntity
8
dimensions
6
CONTINUOUS
62
7
370
0
100
AcDbMText
10
10.0478395062
20
-20.4869444444
30
0
40
2.5
41
7.22222222222
71
5
72
1
1
15.90
7
standard
210
0
220
0
230
1
50
90
73
2
44
1
0
LINE
5
A5
100
AcDbEntity
8
dimensions
6
CONTINUOUS
62
7
370
0
100
AcDbLine
10
9.42283950617
20
-12.5369444444
11
8.79783950617
21
-12.5369444444
0
LINE
5
A6
100
AcDbEntity
8
dimensions
6
CONTINUOUS
62
7
370
0
100
AcDbLine
10
9.42283950617
20
-28.4369444444
11
8.79783950617
21
-28.4369444444
0
ENDBLK
5
60
330
5E
100
AcDbEntity
8
0
100
AcDbBlockEnd
0
BLOCK
5
62
330
61
100
AcDbEntity
8
0
100
AcDbBlockBegin
2
*D11
70
1
10
0
20
0
3
*D11
1

0
LINE
5
A7
100
AcDbEntity
8
dimensions
6
CONTINUOUS
62
7
370
0
100
AcDbLine
10
27.0478395062
20
5.20688271605
11
44.5478395062
21
5.20688271605
0
SOLID
5
A8
100
AcDbEntity
8
dimensions
6
CONTINUOUS
62
7
370
0
100
AcDbTrace
10
27.0478395062
20
5.20688271605
30
0
11
29.5478395062
21
5.62316737382
31
0
12
29.5478395062
22
4.79059805828
32
0
13
29.5478395062
23
4.79059805828
33
0
0
SOLID
5
A9
100
AcDbEntity
8
dimensions
6
CONTINUOUS
62
7
370
0
100
AcDbTrace
10
44.5478395062
20
5.20688271605
30
0
11
42.0478395062
21
4.79059805828
31
0
12
42.0478395062
22
5.62316737382
32
0
13
42.0478395062
23
5.62316737382
33
0
0
MTEXT
5
AA
100
AcDbEntity
8
dimensions
6
CONTINUOUS
62
7
370
0
100
AcDbMText
10
35.1226851852
20
5.20688271605
30
0
40
2.5
41
7.22222222222
71
5
72
1
1
17.50
7
standard
210
0
220
0
230
1
50
0
73
2
44
1
0
LINE
5
AB
100
AcDbEntity
8
dimensions
6
CONTINUOUS
62
7
370
0
100
AcDbLine
10
27.0478395062
20
1.58805555556
11
27.0478395062
21
6.45688271605
0
LINE
5
AC
100
AcDbEntity
8
dimensions
6
CONTINUOUS
62
7
370
0
100
AcDbLine
10
44.5478395062
20
5.83188271605
11
44.5478395062
21
6.45688271605
0
ENDBLK
5
63
330
61
100
AcDbEntity
8
0
100
AcDbBlockEnd
0
BLOCK
5
65
330
64
100
AcDbEntity
8
0
100
AcDbBlockBegin
2
*D16
70
1
10
0
20
0
3
*D16
1

0
LINE
5
AD
100
AcDbEntity
8
dimensions
6
CONTINUOUS
62
7
370
0
100
AcDbLine
10
-56.7158244493
20
9.76033501534
11
-48.1884965384
21
-0.834223904232
0
SOLID
5
AE
100
AcDbEntity
8
dimensions
6
CONTINUOUS
62
7
370
0
100
AcDbTrace
10
-53.5807774232
20
5.86527658903
30
0
11
-55.472591549
21
7.55179140652
31
0
12
-54.8240103234
22
8.07382019785
32
0
13
-54.8240103234
23
8.07382019785
33
0
0
SOLID
5
AF
100
AcDbEntity
8
dimensions
6
CONTINUOUS
62
7
370
0
100
AcDbTrace
10
-51.3235435644
20
3.06083452208
30
0
11
-49.4317294386
21
1.37431970459
31
0
12
-50.0803106642
22
0.852290913256
32
0
13
-50.0803106642
23
0.852290913256
33
0
0
MTEXT
5
B0
100
AcDbEntity
8
dimensions
6
CONTINUOUS
62
7
370
0
100
AcDbMText
10
-51.5019938682
20
3.28254550551
30
0
40
2.5
41
8.33333333333
71
5
72
1
1
%%C3.60
7
standard
210
0
220
0
230
1
50
308.829824905
73
2
44
1
0
ENDBLK
5
66
330
64
100
AcDbEntity
8
0
100
AcDbBlockEnd
0
BLOCK
5
68
330
67
100
AcDbEntity
8
0
100
AcDbBlockBegin
2
*D9
70
1
10
0
20
0
3
*D9
1

0
LINE
5
B1
100
AcDbEntity
8
dimensions
6
CONTINUOUS
62
7
370
0
100
AcDbLine
10
27.0478395062
20
0.338055555556
11
27.0478395062
21
-3.18046296296
0
LINE
5
B2
100
AcDbEntity
8
dimensions
6
CONTINUOUS
62
7
370
0
100
AcDbLine
10
10.0478395062
20
0.338055555556
11
10.0478395062
21
-3.18046296296
0
LINE
5
B3
100
AcDbEntity
8
dimensions
6
CONTINUOUS
62
7
370
0
100
AcDbLine
10
27.0478395062
20
-1.93046296296
11
10.0478395062
21
-1.93046296296
0
SOLID
5
B4
100
AcDbEntity
8
dimensions
6
CONTINUOUS
62
7
370
0
100
AcDbTrace
10
27.0478395062
20
-1.93046296296
30
0
11
24.5478395062
21
-2.34674762074
31
0
12
24.5478395062
22
-1.51417830519
32
0
13
24.5478395062
23
-1.51417830519
33
0
0
SOLID
5
B5
100
AcDbEntity
8
dimensions
6
CONTINUOUS
62
7
370
0
100
AcDbTrace
10
10.0478395062
20
-1.93046296296
30
0
11
12.5478395062
21
-1.51417830519
31
0
12
12.5478395062
22
-2.34674762074
32
0
13
12.5478395062
23
-2.34674762074
33
0
0
MTEXT
5
B6
100
AcDbEntity
8
dimensions
6
CONTINUOUS
62
7
370
0
100
AcDbMText
10
16.5223765432
20
-1.93046296296
30
0
40
2.5
41
7.22222222222
71
5
72
1
1
17.00
7
standard
210
0
220
0
230
1
50
360
73
2
44
1
0
ENDBLK
5
69
330
67
100
AcDbEntity
8
0
100
AcDbBlockEnd
0
BLOCK
5
6B
330
6A
100
AcDbEntity
8
0
100
AcDbBlockBegin
2
*D13
70
1
10
0
20
0
3
*D13
1

0
LINE
5
B7
100
AcDbEntity
8
dimensions
6
CONTINUOUS
62
7
370
0
100
AcDbLine
10
36.6952160494
20
-6.13694444444
11
36.6952160494
21
-28.4369444444
0
SOLID
5
B8
100
AcDbEntity
8
dimensions
6
CONTINUOUS
62
7
370
0
100
AcDbTrace
10
36.6952160494
20
-6.13694444444
30
0
11
37.1115007072
21
-8.63694444444
31
0
12
36.2789313916
22
-8.63694444444
32
0
13
36.2789313916
23
-8.63694444444
33
0
0
SOLID
5
B9
100
AcDbEntity
8
dimensions
6
CONTINUOUS
62
7
370
0
100
AcDbTrace
10
36.6952160494
20
-28.4369444444
30
0
11
36.2789313916
21
-25.9369444444
31
0
12
37.1115007072
22
-25.9369444444
32
0
13
37.1115007072
23
-25.9369444444
33
0
0
MTEXT
5
BA
100
AcDbEntity
8
dimensions
6
CONTINUOUS
62
7
370
0
100
AcDbMText
10
36.6952160494
20
-19.1195061728
30
0
40
2.5
41
7.77777777778
71
5
72
1
1
22.30
7
standard
210
0
220
0
230
1
50
90
73
2
44
1
0
LINE
5
BB
100
AcDbEntity
8
dimensions
6
CONTINUOUS
62
7
370
0
100
AcDbLine
10
33.1728395062
20
-6.13694444444
11
37.9452160494
21
-6.13694444444
0
LINE
5
BC
100
AcDbEntity
8
dimensions
6
CONTINUOUS
62
7
370
0
100
AcDbLine
10
37.3202160494
20
-28.4369444444
11
37.9452160494
21
-28.4369444444
0
ENDBLK
5
6C
330
6A
100
AcDbEntity
8
0
100
AcDbBlockEnd
0
BLOCK
5
6E
330
6D
100
AcDbEntity
8
0
100
AcDbBlockBegin
2
*D1
70
1
10
0
20
0
3
*D1
1

0
LINE
5
BD
100
AcDbEntity
8
dimensions
6
CONTINUOUS
62
7
370
0
100
AcDbLine
10
-0.902160493827
20
17.8880555556
11
-0.902160493827
21
15.044691358
0
LINE
5
BE
100
AcDbEntity
8
dimensions
6
CONTINUOUS
62
7
370
0
100
AcDbLine
10
-48.0021604938
20
17.8880555556
11
-48.0021604938
21
15.044691358
0
LINE
5
BF
100
AcDbEntity
8
dimensions
6
CONTINUOUS
62
7
370
0
100
AcDbLine
10
-0.902160493827
20
16.294691358
11
-48.0021604938
21
16.294691358
0
SOLID
5
C0
100
AcDbEntity
8
dimensions
6
CONTINUOUS
62
7
370
0
100
AcDbTrace
10
-0.902160493827
20
16.294691358
30
0
11
-3.40216049383
21
15.8784067003
31
0
12
-3.40216049383
22
16.7109760158
32
0
13
-3.40216049383
23
16.7109760158
33
0
0
SOLID
5
C1
100
AcDbEntity
8
dimensions
6
CONTINUOUS
62
7
370
0
100
AcDbTrace
10
-48.0021604938
20
16.294691358
30
0
11
-45.5021604938
21
16.7109760158
31
0
12
-45.5021604938
22
15.8784067003
32
0
13
-45.5021604938
23
15.8784067003
33
0
0
MTEXT
5
C2
100
AcDbEntity
8
dimensions
6
CONTINUOUS
62
7
370
0
100
AcDbMText
10
-8.63425925926
20
16.294691358
30
0
40
2.5
41
7.5
71
5
72
1
1
47.10
7
standard
210
0
220
0
230
1
50
360
73
2
44
1
0
ENDBLK
5
6F
330
6D
100
AcDbEntity
8
0
100
AcDbBlockEnd
0
BLOCK
5
71
330
70
100
AcDbEntity
8
0
100
AcDbBlockBegin
2
*D8
70
1
10
0
20
0
3
*D8
1

0
LINE
5
C3
100
AcDbEntity
8
dimensions
6
CONTINUOUS
62
7
370
0
100
AcDbLine
10
10.6728395062
20
0.963055555556
11
13.9020061728
21
0.963055555556
0
LINE
5
C4
100
AcDbEntity
8
dimensions
6
CONTINUOUS
62
7
370
0
100
AcDbLine
10
10.6728395062
20
-12.5369444444
11
13.9020061728
21
-12.5369444444
0
LINE
5
C5
100
AcDbEntity
8
dimensions
6
CONTINUOUS
62
7
370
0
100
AcDbLine
10
12.6520061728
20
0.963055555556
11
12.6520061728
21
-12.5369444444
0
SOLID
5
C6
100
AcDbEntity
8
dimensions
6
CONTINUOUS
62
7
370
0
100
AcDbTrace
10
12.6520061728
20
0.963055555556
30
0
11
13.0682908306
21
-1.53694444444
31
0
12
12.2357215151
22
-1.53694444444
32
0
13
12.2357215151
23
-1.53694444444
33
0
0
SOLID
5
C7
100
AcDbEntity
8
dimensions
6
CONTINUOUS
62
7
370
0
100
AcDbTrace
10
12.6520061728
20
-12.5369444444
30
0
11
12.2357215151
21
-10.0369444444
31
0
12
13.0682908306
22
-10.0369444444
32
0
13
13.0682908306
23
-10.0369444444
33
0
0
MTEXT
5
C8
100
AcDbEntity
8
dimensions
6
CONTINUOUS
62
7
370
0
100
AcDbMText
10
12.6520061728
20
-4.91888888889
30
0
40
2.5
41
7.22222222222
71
5
72
1
1
13.50
7
standard
210
0
220
0
230
1
50
90
73
2
44
1
0
ENDBLK
5
72
330
70
100
AcDbEntity
8
0
100
AcDbBlockEnd
0
BLOCK
5
74
330
73
100
AcDbEntity
8
0
100
AcDbBlockBegin
2
*D14
70
1
10
0
20
0
3
*D14
1

0
LINE
5
C9
100
AcDbEntity
8
dimensions
6
CONTINUOUS
62
7
370
0
100
AcDbLine
10
30.9069687323
20
-3.33158473427
11
34.18871028
21
-8.94230415462
0
SOLID
5
CA
100
AcDbEntity
8
dimensions
6
CONTINUOUS
62
7
370
0
100
AcDbTrace
10
30.9069687323
20
-3.33158473427
30
0
11
32.5285087759
21
-5.27937856408
31
0
12
31.8098452639
22
-5.69972892011
32
0
13
31.8098452639
23
-5.69972892011
33
0
0
SOLID
5
CB
100
AcDbEntity
8
dimensions
6
CONTINUOUS
62
7
370
0
100
AcDbTrace
10
34.18871028
20
-8.94230415462
30
0
11
32.5671702365
21
-6.99451032481
31
0
12
33.2858337484
22
-6.57415996878
32
0
13
33.2858337484
23
-6.57415996878
33
0
0
MTEXT
5
CC
100
AcDbEntity
8
dimensions
6
CONTINUOUS
62
7
370
0
100
AcDbMText
10
33.6179736955
20
-7.96652870356
30
0
40
2.5
41
8.33333333333
71
5
72
1
1
%%C6.50
7
standard
210
0
220
0
230
1
50
300.323606863
73
2
44
1
0
ENDBLK
5
75
330
73
100
AcDbEntity
8
0
100
AcDbBlockEnd
0
BLOCK
5
77
330
76
100
AcDbEntity
8
0
100
AcDbBlockBegin
2
*D12
70
1
10
0
20
0
3
*D12
1

0
LINE
5
CD
100
AcDbEntity
8
dimensions
6
CONTINUOUS
62
7
370
0
100
AcDbLine
10
32.5478395062
20
-0.832160493827
11
44.5478395062
21
-0.832160493827
0
SOLID
5
CE
100
AcDbEntity
8
dimensions
6
CONTINUOUS
62
7
370
0
100
AcDbTrace
10
32.5478395062
20
-0.832160493827
30
0
11
35.0478395062
21
-0.415875836054
31
0
12
35.0478395062
22
-1.2484451516
32
0
13
35.0478395062
23
-1.2484451516
33
0
0
SOLID
5
CF
100
AcDbEntity
8
dimensions
6
CONTINUOUS
62
7
370
0
100
AcDbTrace
10
44.5478395062
20
-0.832160493827
30
0
11
42.0478395062
21
-1.2484451516
31
0
12
42.0478395062
22
-0.415875836054
32
0
13
42.0478395062
23
-0.415875836054
33
0
0
MTEXT
5
D0
100
AcDbEntity
8
dimensions
6
CONTINUOUS
62
7
370
0
100
AcDbMText
10
37.8726851852
20
-0.832160493827
30
0
40
2.5
41
7.22222222222
71
5
72
1
1
12.00
7
standard
210
0
220
0
230
1
50
0
73
2
44
1
0
LINE
5
D1
100
AcDbEntity
8
dimensions
6
CONTINUOUS
62
7
370
0
100
AcDbLine
10
32.5478395062
20
-5.51194444444
11
32.5478395062
21
0.417839506173
0
LINE
5
D2
100
AcDbEntity
8
dimensions
6
CONTINUOUS
62
7
370
0
100
AcDbLine
10
44.5478395062
20
-0.207160493827
11
44.5478395062
21
0.417839506173
0
ENDBLK
5
78
330
76
100
AcDbEntity
8
0
100
AcDbBlockEnd
0
ENDSEC
0
SECTION
2
ENTITIES
0
LWPOLYLINE
5
D3
100
AcDbEntity
8
s00f-#def-outline
6
CONTINUOUS
62
7
370
30
100
AcDbPolyline
90
5
70
0
43
0
10
44.5478395062
20
30.1730555556
10
-63.4521604938
20
30.1730555556
10
-63.4521604938
20
-28.4369444444
10
44.5478395062
20
-28.4369444444
10
44.5478395062
20
30.1730555556
0
LWPOLYLINE
5
D4
100
AcDbEntity
8
s00f-#def-outline
6
CONTINUOUS
62
7
370
30
100
AcDbPolyline
90
17
70
0
43
0
10
33.7441473122
20
-3.11513246599
10
34.845936545
20
-3.83884740559
10
35.5696514845
20
-4.94063663813
10
35.7978395062
20
-6.13694444444
10
35.5696514846
20
-7.33325225052
10
34.845936545
20
-8.4350414833
10
33.7441473125
20
-9.1587564228
10
32.5478395062
20
-9.38694444444
10
31.3515317001
20
-9.1587564229
10
30.2497424673
20
-8.4350414833
10
29.5260275278
20
-7.33325225076
10
29.2978395062
20
-6.13694444444
10
29.5260275277
20
-4.94063663837
10
30.2497424673
20
-3.83884740559
10
31.3515316999
20
-3.11513246609
10
32.5478395062
20
-2.88694444444
10
33.7441473122
20
-3.11513246599
0
LWPOLYLINE
5
D5
100
AcDbEntity
8
s00f-#def-outline
6
CONTINUOUS
62
7
370
30
100
AcDbPolyline
90
5
70
0
43
0
10
27.0478395062
20
-12.5369444444
10
10.0478395062
20
-12.5369444444
10
10.0478395062
20
0.963055555556
10
27.0478395062
20
0.963055555556
10
27.0478395062
20
-12.5369444444
0
LWPOLYLINE
5
D6
100
AcDbEntity
8
s00f-#def-outline
6
CONTINUOUS
62
7
370
30
100
AcDbPolyline
90
17
70
0
43
0
10
4.21040998338
20
6.13667449747
10
4.82063171231
20
5.73584776169
10
5.22145844803
20
5.1256260329
10
5.34783950617
20
4.46305555556
10
5.22145844809
20
3.80048507834
10
4.82063171231
20
3.19026334942
10
4.21040998352
20
2.7894366137
10
3.54783950617
20
2.66305555556
10
2.88526902896
20
2.78943661364
10
2.27504730004
20
3.19026334942
10
1.87422056431
20
3.80048507821
10
1.74783950617
20
4.46305555556
10
1.87422056426
20
5.12562603277
10
2.27504730004
20
5.73584776169
10
2.88526902883
20
6.13667449742
10
3.54783950617
20
6.26305555556
10
4.21040998338
20
6.13667449747
0
LWPOLYLINE
5
D7
100
AcDbEntity
8
s00f-#def-outline
6
CONTINUOUS
62
7
370
30
100
AcDbPolyline
90
5
70
0
43
0
10
-0.902160493827
20
18.5130555556
10
-0.902160493827
20
-9.58694444444
10
-48.0021604938
20
-9.58694444444
10
-48.0021604938
20
18.5130555556
10
-0.902160493827
20
18.5130555556
0
LWPOLYLINE
5
D8
100
AcDbEntity
8
s00f-#def-outline
6
CONTINUOUS
62
7
370
30
100
AcDbPolyline
90
17
70
0
43
0
10
-51.1793682877
20
5.73584776169
10
-50.778541552
20
5.1256260329
10
-50.6521604938
20
4.46305555556
10
-50.7785415519
20
3.80048507834
10
-51.1793682877
20
3.19026334942
10
-51.7895900165
20
2.7894366137
10
-52.4521604938
20
2.66305555556
10
-53.114730971
20
2.78943661364
10
-53.7249527
20
3.19026334942
10
-54.1257794357
20
3.80048507821
10
-54.2521604938
20
4.46305555556
10
-54.1257794357
20
5.12562603277
10
-53.7249527
20
5.73584776169
10
-53.1147309712
20
6.13667449742
10
-52.4521604938
20
6.26305555556
10
-51.7895900166
20
6.13667449747
10
-51.1793682877
20
5.73584776169
0
DIMENSION
5
D9
100
AcDbEntity
8
dimensions
6
CONTINUOUS
62
6
420
16718335
370
9
100
AcDbDimension
2
*D1
10
-48.0021604938
20
16.294691358
30
0
11
-8.63425925926
21
16.294691358
31
0
70
33
1
47.10
71
5
72
0
3
STANDARD
53
0
210
0
220
0
230
1
100
AcDbAlignedDimension
13
-0.902160493827
23
18.5130555556
33
0
14
-48.0021604938
24
18.5130555556
34
0
0
DIMENSION
5
DA
100
AcDbEntity
8
dimensions
6
CONTINUOUS
62
6
420
16718335
370
9
100
AcDbDimension
2
*D2
10
-3.79567901235
20
18.5130555556
30
0
11
-3.79567901235
21
13.6258641975
31
0
70
33
1
28.10
71
5
72
0
3
STANDARD
53
0
210
0
220
0
230
1
100
AcDbAlignedDimension
13
-0.902160493827
23
-9.58694444444
33
0
14
-0.902160493827
24
18.5130555556
34
0
0
DIMENSION
5
DB
100
AcDbEntity
8
dimensions
6
CONTINUOUS
62
6
420
16718335
370
9
100
AcDbDimension
2
*D3
10
3.54783950617
20
21.6312654321
30
0
11
-24.3557098765
21
21.6312654321
31
0
70
33
1
56.00
71
5
72
0
3
STANDARD
53
0
210
0
220
0
230
1
100
AcDbAlignedDimension
13
-52.4521604938
23
4.46305555556
33
0
14
3.54783950617
24
4.46305555556
34
0
0
DIMENSION
5
DC
100
AcDbEntity
8
dimensions
6
CONTINUOUS
62
6
420
16718335
370
9
100
AcDbDimension
2
*D4
10
-58.2415123457
20
17.194537037
30
0
11
-58.2415123457
21
17.194537037
31
0
70
32
1
11.00
71
5
72
0
3
STANDARD
53
0
210
0
220
0
230
1
100
AcDbAlignedDimension
13
-52.4521604938
23
4.46305555556
33
0
14
-63.4521604938
24
17.194537037
34
0
100
AcDbRotatedDimension
0
DIMENSION
5
DD
100
AcDbEntity
8
dimensions
6
CONTINUOUS
62
6
420
16718335
370
9
100
AcDbDimension
2
*D5
10
-55.8279320988
20
-6.29635802469
30
0
11
-55.8279320988
21
-6.29635802469
31
0
70
32
1
32.90
71
5
72
0
3
STANDARD
53
0
210
0
220
0
230
1
100
AcDbAlignedDimension
13
-52.4521604938
23
4.46305555556
33
0
14
-55.8279320988
24
-28.4369444444
34
0
50
90
100
AcDbRotatedDimension
0
DIMENSION
5
DE
100
AcDbEntity
8
dimensions
6
CONTINUOUS
62
6
420
16718335
370
9
100
AcDbDimension
2
*D6
10
-46.0731481481
20
-18.7225925926
30
0
11
-46.0731481481
21
-18.7225925926
31
0
70
32
1
18.85
71
5
72
0
3
STANDARD
53
0
210
0
220
0
230
1
100
AcDbAlignedDimension
13
-48.0021604938
23
-9.58694444444
33
0
14
-46.0731481481
24
-28.4369444444
34
0
50
90
100
AcDbRotatedDimension
0
DIMENSION
5
DF
100
AcDbEntity
8
dimensions
6
CONTINUOUS
62
6
420
16718335
370
9
100
AcDbDimension
2
*D7
10
-53.7016975309
20
-14.7952777778
30
0
11
-53.7016975309
21
-14.7952777778
31
0
70
32
1
15.45
71
5
72
0
3
STANDARD
53
0
210
0
220
0
230
1
100
AcDbAlignedDimension
13
-48.0021604938
23
-9.58694444444
33
0
14
-63.4521604938
24
-14.7952777778
34
0
100
AcDbRotatedDimension
0
DIMENSION
5
E0
100
AcDbEntity
8
dimensions
6
CONTINUOUS
62
6
420
16718335
370
9
100
AcDbDimension
2
*D8
10
12.6520061728
20
-12.5369444444
30
0
11
12.6520061728
21
-4.91888888889
31
0
70
33
1
13.50
71
5
72
0
3
STANDARD
53
0
210
0
220
0
230
1
100
AcDbAlignedDimension
13
10.0478395062
23
0.963055555556
33
0
14
10.0478395062
24
-12.5369444444
34
0
0
DIMENSION
5
E1
100
AcDbEntity
8
dimensions
6
CONTINUOUS
62
6
420
16718335
370
9
100
AcDbDimension
2
*D9
10
10.0478395062
20
-1.93046296296
30
0
11
16.5223765432
21
-1.93046296296
31
0
70
33
1
17.00
71
5
72
0
3
STANDARD
53
0
210
0
220
0
230
1
100
AcDbAlignedDimension
13
27.0478395062
23
0.963055555556
33
0
14
10.0478395062
24
0.963055555556
34
0
0
DIMENSION
5
E2
100
AcDbEntity
8
dimensions
6
CONTINUOUS
62
6
420
16718335
370
9
100
AcDbDimension
2
*D10
10
10.0478395062
20
-20.4869444444
30
0
11
10.0478395062
21
-20.4869444444
31
0
70
32
1
15.90
71
5
72
0
3
STANDARD
53
0
210
0
220
0
230
1
100
AcDbAlignedDimension
13
10.0478395062
23
-12.5369444444
33
0
14
10.0478395062
24
-28.4369444444
34
0
50
90
100
AcDbRotatedDimension
0
DIMENSION
5
E3
100
AcDbEntity
8
dimensions
6
CONTINUOUS
62
6
420
16718335
370
9
100
AcDbDimension
2
*D11
10
35.1226851852
20
5.20688271605
30
0
11
35.1226851852
21
5.20688271605
31
0
70
32
1
17.50
71
5
72
0
3
STANDARD
53
0
210
0
220
0
230
1
100
AcDbAlignedDimension
13
27.0478395062
23
0.963055555556
33
0
14
44.5478395062
24
5.20688271605
34
0
50
180
100
AcDbRotatedDimension
0
DIMENSION
5
E4
100
AcDbEntity
8
dimensions
6
CONTINUOUS
62
6
420
16718335
370
9
100
AcDbDimension
2
*D12
10
37.8726851852
20
-0.832160493827
30
0
11
37.8726851852
21
-0.832160493827
31
0
70
32
1
12.00
71
5
72
0
3
STANDARD
53
0
210
0
220
0
230
1
100
AcDbAlignedDimension
13
32.5478395062
23
-6.13694444444
33
0
14
44.5478395062
24
-0.832160493827
34
0
50
180
100
AcDbRotatedDimension
0
DIMENSION
5
E5
100
AcDbEntity
8
dimensions
6
CONTINUOUS
62
6
420
16718335
370
9
100
AcDbDimension
2
*D13
10
36.6952160494
20
-19.1195061728
30
0
11
36.6952160494
21
-19.1195061728
31
0
70
32
1
22.30
71
5
72
0
3
STANDARD
53
0
210
0
220
0
230
1
100
AcDbAlignedDimension
13
32.5478395062
23
-6.13694444444
33
0
14
36.6952160494
24
-28.4369444444
34
0
50
90
100
AcDbRotatedDimension
0
DIMENSION
5
E6
100
AcDbEntity
8
dimensions
6
CONTINUOUS
62
6
420
16718335
370
9
100
AcDbDimension
2
*D14
10
30.9069687323
20
-3.33158473427
30
0
11
29.5578703704
21
-1.0250617284
31
0
70
35
1
%%C6.50
71
5
72
0
3
STANDARD
53
0
210
0
220
0
230
1
100
AcDbDiametricDimension
15
34.18871028
25
-8.94230415462
35
0
40
0
0
DIMENSION
5
E7
100
AcDbEntity
8
dimensions
6
CONTINUOUS
62
6
420
16718335
370
9
100
AcDbDimension
2
*D15
10
4.71053554081
20
5.83715086922
30
0
11
6.73070987654
21
8.22462962963
31
0
70
35
1
%%C3.60
71
5
72
0
3
STANDARD
53
0
210
0
220
0
230
1
100
AcDbDiametricDimension
15
2.38514347153
25
3.08896024189
35
0
40
0
0
DIMENSION
5
E8
100
AcDbEntity
8
dimensions
6
CONTINUOUS
62
6
420
16718335
370
9
100
AcDbDimension
2
*D16
10
-53.5807774232
20
5.86527658903
30
0
11
-55.6350308642
21
8.4175308642
31
0
70
35
1
%%C3.60
71
5
72
0
3
STANDARD
53
0
210
0
220
0
230
1
100
AcDbDiametricDimension
15
-51.3235435644
25
3.06083452208
35
0
40
0
0
ENDSEC
0
SECTION
2
OBJECTS
0
DICTIONARY
5
C
330
0
100
AcDbDictionary
281
1
3
ACAD_GROUP
350
D
0
DICTIONARY
5
D
330
C
100
AcDbDictionary
281
1
0
ENDSEC
0
EOF
