G04 #@! TF.FileFunction,Soldermask,Bot*
%FSLAX46Y46*%
G04 Gerber Fmt 4.6, Leading zero omitted, Abs format (unit mm)*
G04 Created by KiCad (PCBNEW 201609280951+7255~55~ubuntu14.04.1-) date Mon Dec 19 07:10:35 2016*
%MOMM*%
%LPD*%
G01*
G04 APERTURE LIST*
%ADD10C,0.100000*%
%ADD11C,3.600000*%
%ADD12C,2.500000*%
%ADD13C,2.000000*%
%ADD14R,2.000000X3.000000*%
%ADD15R,0.300000X1.250000*%
%ADD16R,0.700000X1.100000*%
%ADD17R,1.140000X1.830000*%
%ADD18R,0.860000X2.800000*%
%ADD19R,0.700000X3.330000*%
%ADD20R,0.900000X0.930000*%
%ADD21R,1.050000X0.780000*%
%ADD22C,1.600000*%
%ADD23C,2.540000*%
%ADD24C,3.251200*%
%ADD25C,1.400000*%
%ADD26C,1.200000*%
%ADD27C,1.300000*%
%ADD28C,1.016000*%
%ADD29C,2.800000*%
%ADD30C,0.254000*%
G04 APERTURE END LIST*
D10*
D11*
X143000000Y-59500000D03*
X87000000Y-59500000D03*
D12*
X97450000Y-69050000D03*
D13*
X132650000Y-69050000D03*
X126650000Y-69050000D03*
D14*
X85960000Y-148325000D03*
X113540000Y-148325000D03*
D15*
X87500000Y-146000000D03*
X88000000Y-146000000D03*
X88500000Y-146000000D03*
X89000000Y-146000000D03*
X89500000Y-146000000D03*
X90000000Y-146000000D03*
X90500000Y-146000000D03*
X91000000Y-146000000D03*
X91500000Y-146000000D03*
X92000000Y-146000000D03*
X92500000Y-146000000D03*
X93000000Y-146000000D03*
X93500000Y-146000000D03*
X94000000Y-146000000D03*
X94500000Y-146000000D03*
X95000000Y-146000000D03*
X95500000Y-146000000D03*
X96000000Y-146000000D03*
X96500000Y-146000000D03*
X97000000Y-146000000D03*
X97500000Y-146000000D03*
X98000000Y-146000000D03*
X98500000Y-146000000D03*
X99000000Y-146000000D03*
X99500000Y-146000000D03*
X100000000Y-146000000D03*
X100500000Y-146000000D03*
X101000000Y-146000000D03*
X101500000Y-146000000D03*
X102000000Y-146000000D03*
X102500000Y-146000000D03*
X103000000Y-146000000D03*
X103500000Y-146000000D03*
X104000000Y-146000000D03*
X104500000Y-146000000D03*
X105000000Y-146000000D03*
X105500000Y-146000000D03*
X106000000Y-146000000D03*
X106500000Y-146000000D03*
X107000000Y-146000000D03*
X107500000Y-146000000D03*
X108000000Y-146000000D03*
X108500000Y-146000000D03*
X109000000Y-146000000D03*
X109500000Y-146000000D03*
X110000000Y-146000000D03*
X110500000Y-146000000D03*
X111000000Y-146000000D03*
X111500000Y-146000000D03*
X112000000Y-146000000D03*
D16*
X57200000Y-148000000D03*
X58300000Y-148000000D03*
X59400000Y-148000000D03*
X60500000Y-148000000D03*
X61500000Y-148000000D03*
X62600000Y-148000000D03*
X63700000Y-148000000D03*
X64800000Y-148000000D03*
D17*
X53320000Y-147985000D03*
D18*
X65980000Y-147500000D03*
D19*
X66060000Y-136735000D03*
X53100000Y-136735000D03*
D20*
X55410000Y-135535000D03*
D21*
X59675000Y-135460000D03*
D22*
X125400000Y-131500000D03*
X125400000Y-139100000D03*
D23*
X63872000Y-57929000D03*
X80128000Y-57929000D03*
D24*
X65650000Y-54500000D03*
X78350000Y-54500000D03*
D25*
X67428000Y-63644000D03*
X76572000Y-63644000D03*
X65142000Y-63644000D03*
X78858000Y-63644000D03*
X68444000Y-57040000D03*
X70476000Y-57040000D03*
X72508000Y-57040000D03*
X74540000Y-57040000D03*
X69460000Y-58818000D03*
X71492000Y-58818000D03*
X73524000Y-58818000D03*
X75556000Y-58818000D03*
D22*
X138000000Y-121500000D03*
X138000000Y-123500000D03*
D26*
X135900000Y-120000000D03*
X135900000Y-125000000D03*
D27*
X111000000Y-104500000D03*
X106000000Y-104500000D03*
X101000000Y-104500000D03*
X96000000Y-104500000D03*
X96000000Y-119500000D03*
X101000000Y-119500000D03*
X106000000Y-119500000D03*
X111000000Y-119500000D03*
D26*
X105000000Y-88500000D03*
X95000000Y-88500000D03*
X87500000Y-96000000D03*
X97500000Y-96000000D03*
X112500000Y-96000000D03*
X102500000Y-96000000D03*
D28*
X67590000Y-106615000D03*
X67590000Y-107885000D03*
X66320000Y-106615000D03*
X66320000Y-107885000D03*
X65050000Y-106615000D03*
X65050000Y-107885000D03*
X63780000Y-106615000D03*
X63780000Y-107885000D03*
X62510000Y-106615000D03*
X62510000Y-107885000D03*
D12*
X58000000Y-55000000D03*
D29*
X60540000Y-57540000D03*
X60540000Y-52460000D03*
X55460000Y-57540000D03*
X55460000Y-52460000D03*
D12*
X121500000Y-89500000D03*
X141500000Y-89500000D03*
X136500000Y-109500000D03*
X126500000Y-109500000D03*
D30*
G36*
X51873000Y-149873000D02*
X50127000Y-149873000D01*
X50127000Y-50127000D01*
X51873000Y-50127000D01*
X51873000Y-149873000D01*
X51873000Y-149873000D01*
G37*
X51873000Y-149873000D02*
X50127000Y-149873000D01*
X50127000Y-50127000D01*
X51873000Y-50127000D01*
X51873000Y-149873000D01*
G36*
X149873000Y-149873000D02*
X148127000Y-149873000D01*
X148127000Y-50127000D01*
X149873000Y-50127000D01*
X149873000Y-149873000D01*
X149873000Y-149873000D01*
G37*
X149873000Y-149873000D02*
X148127000Y-149873000D01*
X148127000Y-50127000D01*
X149873000Y-50127000D01*
X149873000Y-149873000D01*
M02*
