G04 #@! TF.FileFunction,Legend,Top*
%FSLAX46Y46*%
G04 Gerber Fmt 4.6, Leading zero omitted, Abs format (unit mm)*
G04 Created by KiCad (PCBNEW 201609280951+7255~55~ubuntu14.04.1-) date Mon Dec 19 07:10:35 2016*
%MOMM*%
%LPD*%
G01*
G04 APERTURE LIST*
%ADD10C,0.100000*%
%ADD11C,0.250000*%
%ADD12C,0.300000*%
%ADD13C,0.200000*%
%ADD14C,1.000000*%
%ADD15C,0.150000*%
%ADD16R,1.000000X0.950000*%
%ADD17R,0.300000X1.500000*%
%ADD18R,1.500000X0.300000*%
%ADD19C,3.600000*%
%ADD20C,2.500000*%
%ADD21C,2.000000*%
%ADD22R,0.950000X1.000000*%
%ADD23C,1.600000*%
%ADD24R,2.400000X1.900000*%
%ADD25R,1.800000X1.150000*%
%ADD26C,2.540000*%
%ADD27C,3.251200*%
%ADD28C,1.400000*%
%ADD29C,1.200000*%
%ADD30R,0.620000X0.620000*%
%ADD31R,0.640000X1.910000*%
%ADD32C,1.300000*%
%ADD33C,1.016000*%
%ADD34R,0.700000X1.800000*%
%ADD35R,0.300000X1.450000*%
%ADD36R,1.450000X0.450000*%
%ADD37R,0.450000X1.450000*%
%ADD38R,0.600000X0.250000*%
%ADD39R,0.250000X0.600000*%
%ADD40R,1.702000X1.702000*%
%ADD41R,0.230000X0.480000*%
%ADD42R,0.480000X0.230000*%
%ADD43R,1.002000X1.002000*%
%ADD44R,0.400000X0.950000*%
%ADD45C,2.800000*%
%ADD46R,0.800000X1.000000*%
%ADD47R,0.600000X1.000000*%
%ADD48R,1.000000X0.600000*%
%ADD49R,0.600000X1.100000*%
%ADD50R,1.850000X0.450000*%
%ADD51C,0.254000*%
G04 APERTURE END LIST*
D10*
D11*
X53707142Y-100128571D02*
X53650000Y-100071428D01*
X53592857Y-99957142D01*
X53592857Y-99671428D01*
X53650000Y-99557142D01*
X53707142Y-99500000D01*
X53821428Y-99442857D01*
X53935714Y-99442857D01*
X54107142Y-99500000D01*
X54792857Y-100185714D01*
X54792857Y-99442857D01*
X53592857Y-98700000D02*
X53592857Y-98585714D01*
X53650000Y-98471428D01*
X53707142Y-98414285D01*
X53821428Y-98357142D01*
X54050000Y-98300000D01*
X54335714Y-98300000D01*
X54564285Y-98357142D01*
X54678571Y-98414285D01*
X54735714Y-98471428D01*
X54792857Y-98585714D01*
X54792857Y-98700000D01*
X54735714Y-98814285D01*
X54678571Y-98871428D01*
X54564285Y-98928571D01*
X54335714Y-98985714D01*
X54050000Y-98985714D01*
X53821428Y-98928571D01*
X53707142Y-98871428D01*
X53650000Y-98814285D01*
X53592857Y-98700000D01*
X54792857Y-97157142D02*
X54792857Y-97842857D01*
X54792857Y-97500000D02*
X53592857Y-97500000D01*
X53764285Y-97614285D01*
X53878571Y-97728571D01*
X53935714Y-97842857D01*
X53592857Y-96128571D02*
X53592857Y-96357142D01*
X53650000Y-96471428D01*
X53707142Y-96528571D01*
X53878571Y-96642857D01*
X54107142Y-96700000D01*
X54564285Y-96700000D01*
X54678571Y-96642857D01*
X54735714Y-96585714D01*
X54792857Y-96471428D01*
X54792857Y-96242857D01*
X54735714Y-96128571D01*
X54678571Y-96071428D01*
X54564285Y-96014285D01*
X54278571Y-96014285D01*
X54164285Y-96071428D01*
X54107142Y-96128571D01*
X54050000Y-96242857D01*
X54050000Y-96471428D01*
X54107142Y-96585714D01*
X54164285Y-96642857D01*
X54278571Y-96700000D01*
X54335714Y-95500000D02*
X54335714Y-94585714D01*
X54792857Y-93385714D02*
X54792857Y-94071428D01*
X54792857Y-93728571D02*
X53592857Y-93728571D01*
X53764285Y-93842857D01*
X53878571Y-93957142D01*
X53935714Y-94071428D01*
X53707142Y-92928571D02*
X53650000Y-92871428D01*
X53592857Y-92757142D01*
X53592857Y-92471428D01*
X53650000Y-92357142D01*
X53707142Y-92300000D01*
X53821428Y-92242857D01*
X53935714Y-92242857D01*
X54107142Y-92300000D01*
X54792857Y-92985714D01*
X54792857Y-92242857D01*
X54335714Y-91728571D02*
X54335714Y-90814285D01*
X54792857Y-89614285D02*
X54792857Y-90300000D01*
X54792857Y-89957142D02*
X53592857Y-89957142D01*
X53764285Y-90071428D01*
X53878571Y-90185714D01*
X53935714Y-90300000D01*
X54792857Y-89042857D02*
X54792857Y-88814285D01*
X54735714Y-88700000D01*
X54678571Y-88642857D01*
X54507142Y-88528571D01*
X54278571Y-88471428D01*
X53821428Y-88471428D01*
X53707142Y-88528571D01*
X53650000Y-88585714D01*
X53592857Y-88700000D01*
X53592857Y-88928571D01*
X53650000Y-89042857D01*
X53707142Y-89100000D01*
X53821428Y-89157142D01*
X54107142Y-89157142D01*
X54221428Y-89100000D01*
X54278571Y-89042857D01*
X54335714Y-88928571D01*
X54335714Y-88700000D01*
X54278571Y-88585714D01*
X54221428Y-88528571D01*
X54107142Y-88471428D01*
D12*
X54903571Y-116321428D02*
X54903571Y-117035714D01*
X53403571Y-117035714D01*
X54903571Y-115821428D02*
X53403571Y-115821428D01*
X54903571Y-115107142D02*
X53403571Y-115107142D01*
X54903571Y-114250000D01*
X53403571Y-114250000D01*
X54117857Y-113535714D02*
X54117857Y-113035714D01*
X54903571Y-112821428D02*
X54903571Y-113535714D01*
X53403571Y-113535714D01*
X53403571Y-112821428D01*
X53403571Y-112392857D02*
X53403571Y-111535714D01*
X54903571Y-111964285D02*
X53403571Y-111964285D01*
X54903571Y-111035714D02*
X53403571Y-111035714D01*
X54903571Y-110321428D02*
X53403571Y-110321428D01*
X54475000Y-109821428D01*
X53403571Y-109321428D01*
X54903571Y-109321428D01*
X54117857Y-108607142D02*
X54117857Y-108107142D01*
X54903571Y-107892857D02*
X54903571Y-108607142D01*
X53403571Y-108607142D01*
X53403571Y-107892857D01*
X54903571Y-106107142D02*
X53903571Y-106107142D01*
X54189285Y-106107142D02*
X54046428Y-106035714D01*
X53975000Y-105964285D01*
X53903571Y-105821428D01*
X53903571Y-105678571D01*
X54903571Y-104392857D02*
X54903571Y-105250000D01*
X54903571Y-104821428D02*
X53403571Y-104821428D01*
X53617857Y-104964285D01*
X53760714Y-105107142D01*
X53832142Y-105250000D01*
X57025000Y-117214285D02*
X57025000Y-116500000D01*
X57453571Y-117357142D02*
X55953571Y-116857142D01*
X57453571Y-116357142D01*
X57453571Y-115857142D02*
X55953571Y-115857142D01*
X55953571Y-115500000D01*
X56025000Y-115285714D01*
X56167857Y-115142857D01*
X56310714Y-115071428D01*
X56596428Y-115000000D01*
X56810714Y-115000000D01*
X57096428Y-115071428D01*
X57239285Y-115142857D01*
X57382142Y-115285714D01*
X57453571Y-115500000D01*
X57453571Y-115857142D01*
X57025000Y-114428571D02*
X57025000Y-113714285D01*
X57453571Y-114571428D02*
X55953571Y-114071428D01*
X57453571Y-113571428D01*
X57453571Y-113071428D02*
X55953571Y-113071428D01*
X57025000Y-112571428D01*
X55953571Y-112071428D01*
X57453571Y-112071428D01*
X56025000Y-109428571D02*
X55953571Y-109571428D01*
X55953571Y-109785714D01*
X56025000Y-110000000D01*
X56167857Y-110142857D01*
X56310714Y-110214285D01*
X56596428Y-110285714D01*
X56810714Y-110285714D01*
X57096428Y-110214285D01*
X57239285Y-110142857D01*
X57382142Y-110000000D01*
X57453571Y-109785714D01*
X57453571Y-109642857D01*
X57382142Y-109428571D01*
X57310714Y-109357142D01*
X56810714Y-109357142D01*
X56810714Y-109642857D01*
X57453571Y-107857142D02*
X56739285Y-108357142D01*
X57453571Y-108714285D02*
X55953571Y-108714285D01*
X55953571Y-108142857D01*
X56025000Y-108000000D01*
X56096428Y-107928571D01*
X56239285Y-107857142D01*
X56453571Y-107857142D01*
X56596428Y-107928571D01*
X56667857Y-108000000D01*
X56739285Y-108142857D01*
X56739285Y-108714285D01*
X56667857Y-107214285D02*
X56667857Y-106714285D01*
X57453571Y-106500000D02*
X57453571Y-107214285D01*
X55953571Y-107214285D01*
X55953571Y-106500000D01*
X57453571Y-105857142D02*
X55953571Y-105857142D01*
X56025000Y-104357142D02*
X55953571Y-104500000D01*
X55953571Y-104714285D01*
X56025000Y-104928571D01*
X56167857Y-105071428D01*
X56310714Y-105142857D01*
X56596428Y-105214285D01*
X56810714Y-105214285D01*
X57096428Y-105142857D01*
X57239285Y-105071428D01*
X57382142Y-104928571D01*
X57453571Y-104714285D01*
X57453571Y-104571428D01*
X57382142Y-104357142D01*
X57310714Y-104285714D01*
X56810714Y-104285714D01*
X56810714Y-104571428D01*
X144646428Y-69435714D02*
X143146428Y-69792857D01*
X144217857Y-70078571D01*
X143146428Y-70364285D01*
X144646428Y-70721428D01*
X143575000Y-71221428D02*
X143575000Y-71935714D01*
X143146428Y-71078571D02*
X144646428Y-71578571D01*
X143146428Y-72078571D01*
X143146428Y-73435714D02*
X143860714Y-72935714D01*
X143146428Y-72578571D02*
X144646428Y-72578571D01*
X144646428Y-73150000D01*
X144575000Y-73292857D01*
X144503571Y-73364285D01*
X144360714Y-73435714D01*
X144146428Y-73435714D01*
X144003571Y-73364285D01*
X143932142Y-73292857D01*
X143860714Y-73150000D01*
X143860714Y-72578571D01*
X143146428Y-74078571D02*
X144646428Y-74078571D01*
X143146428Y-74935714D01*
X144646428Y-74935714D01*
X143146428Y-75650000D02*
X144646428Y-75650000D01*
X143146428Y-76364285D02*
X144646428Y-76364285D01*
X143146428Y-77221428D01*
X144646428Y-77221428D01*
X144575000Y-78721428D02*
X144646428Y-78578571D01*
X144646428Y-78364285D01*
X144575000Y-78150000D01*
X144432142Y-78007142D01*
X144289285Y-77935714D01*
X144003571Y-77864285D01*
X143789285Y-77864285D01*
X143503571Y-77935714D01*
X143360714Y-78007142D01*
X143217857Y-78150000D01*
X143146428Y-78364285D01*
X143146428Y-78507142D01*
X143217857Y-78721428D01*
X143289285Y-78792857D01*
X143789285Y-78792857D01*
X143789285Y-78507142D01*
X140596428Y-66578571D02*
X142096428Y-66578571D01*
X141382142Y-66578571D02*
X141382142Y-67435714D01*
X140596428Y-67435714D02*
X142096428Y-67435714D01*
X140596428Y-68150000D02*
X142096428Y-68150000D01*
X142025000Y-69650000D02*
X142096428Y-69507142D01*
X142096428Y-69292857D01*
X142025000Y-69078571D01*
X141882142Y-68935714D01*
X141739285Y-68864285D01*
X141453571Y-68792857D01*
X141239285Y-68792857D01*
X140953571Y-68864285D01*
X140810714Y-68935714D01*
X140667857Y-69078571D01*
X140596428Y-69292857D01*
X140596428Y-69435714D01*
X140667857Y-69650000D01*
X140739285Y-69721428D01*
X141239285Y-69721428D01*
X141239285Y-69435714D01*
X140596428Y-70364285D02*
X142096428Y-70364285D01*
X141382142Y-70364285D02*
X141382142Y-71221428D01*
X140596428Y-71221428D02*
X142096428Y-71221428D01*
X142096428Y-72864285D02*
X140596428Y-73364285D01*
X142096428Y-73864285D01*
X142096428Y-74650000D02*
X142096428Y-74935714D01*
X142025000Y-75078571D01*
X141882142Y-75221428D01*
X141596428Y-75292857D01*
X141096428Y-75292857D01*
X140810714Y-75221428D01*
X140667857Y-75078571D01*
X140596428Y-74935714D01*
X140596428Y-74650000D01*
X140667857Y-74507142D01*
X140810714Y-74364285D01*
X141096428Y-74292857D01*
X141596428Y-74292857D01*
X141882142Y-74364285D01*
X142025000Y-74507142D01*
X142096428Y-74650000D01*
X140596428Y-76650000D02*
X140596428Y-75935714D01*
X142096428Y-75935714D01*
X142096428Y-76935714D02*
X142096428Y-77792857D01*
X140596428Y-77364285D02*
X142096428Y-77364285D01*
X141025000Y-78221428D02*
X141025000Y-78935714D01*
X140596428Y-78078571D02*
X142096428Y-78578571D01*
X140596428Y-79078571D01*
X142025000Y-80364285D02*
X142096428Y-80221428D01*
X142096428Y-80007142D01*
X142025000Y-79792857D01*
X141882142Y-79650000D01*
X141739285Y-79578571D01*
X141453571Y-79507142D01*
X141239285Y-79507142D01*
X140953571Y-79578571D01*
X140810714Y-79650000D01*
X140667857Y-79792857D01*
X140596428Y-80007142D01*
X140596428Y-80150000D01*
X140667857Y-80364285D01*
X140739285Y-80435714D01*
X141239285Y-80435714D01*
X141239285Y-80150000D01*
X141382142Y-81078571D02*
X141382142Y-81578571D01*
X140596428Y-81792857D02*
X140596428Y-81078571D01*
X142096428Y-81078571D01*
X142096428Y-81792857D01*
D13*
X82000000Y-50000000D02*
X82000000Y-50000000D01*
D14*
X82000000Y-104000000D02*
X82000000Y-50000000D01*
X90000000Y-112000000D02*
X82000000Y-104000000D01*
X112500000Y-112000000D02*
X90000000Y-112000000D01*
X122000000Y-102500000D02*
X112500000Y-112000000D01*
X148000000Y-102500000D02*
X122000000Y-102500000D01*
D15*
X77325000Y-90475000D02*
X77325000Y-90725000D01*
X77325000Y-90725000D02*
X76675000Y-90725000D01*
X76675000Y-90725000D02*
X76675000Y-90475000D01*
X76675000Y-90475000D02*
X77325000Y-90475000D01*
X62050000Y-133600000D02*
X62050000Y-115300000D01*
X62050000Y-115300000D02*
X80950000Y-115300000D01*
X80950000Y-115300000D02*
X80950000Y-134200000D01*
X80950000Y-134200000D02*
X62650000Y-134200000D01*
X62650000Y-134200000D02*
X62050000Y-133600000D01*
X147400000Y-50100000D02*
X147400000Y-59500000D01*
X143000000Y-63900000D02*
G75*
G03X147400000Y-59500000I0J4400000D01*
G01*
X143000000Y-63900000D02*
X138200000Y-63900000D01*
X138200000Y-63900000D02*
X138200000Y-84500000D01*
X138200000Y-84500000D02*
X107000000Y-84500000D01*
X107000000Y-84500000D02*
X106000000Y-74300000D01*
X106000000Y-74300000D02*
X91800000Y-74300000D01*
X91800000Y-74300000D02*
X91800000Y-63900000D01*
X91800000Y-63900000D02*
X87000000Y-63900000D01*
X82600000Y-59500000D02*
G75*
G03X87000000Y-63900000I4400000J0D01*
G01*
X82600000Y-59500000D02*
X82600000Y-50100000D01*
X82600000Y-50100000D02*
X147400000Y-50100000D01*
X57375000Y-123975000D02*
X58025000Y-123975000D01*
X57375000Y-124225000D02*
X57375000Y-123975000D01*
X58025000Y-124225000D02*
X57375000Y-124225000D01*
X58025000Y-123975000D02*
X58025000Y-124225000D01*
X56525000Y-123975000D02*
X56525000Y-124225000D01*
X56525000Y-124225000D02*
X55875000Y-124225000D01*
X55875000Y-124225000D02*
X55875000Y-123975000D01*
X55875000Y-123975000D02*
X56525000Y-123975000D01*
X54375000Y-123975000D02*
X55025000Y-123975000D01*
X54375000Y-124225000D02*
X54375000Y-123975000D01*
X55025000Y-124225000D02*
X54375000Y-124225000D01*
X55025000Y-123975000D02*
X55025000Y-124225000D01*
X56925000Y-126525000D02*
X56925000Y-127175000D01*
X56675000Y-126525000D02*
X56925000Y-126525000D01*
X56675000Y-127175000D02*
X56675000Y-126525000D01*
X56925000Y-127175000D02*
X56675000Y-127175000D01*
X115775000Y-118975000D02*
X116425000Y-118975000D01*
X115775000Y-119225000D02*
X115775000Y-118975000D01*
X116425000Y-119225000D02*
X115775000Y-119225000D01*
X116425000Y-118975000D02*
X116425000Y-119225000D01*
X55925000Y-84325000D02*
X55925000Y-84575000D01*
X55925000Y-84575000D02*
X55275000Y-84575000D01*
X55275000Y-84575000D02*
X55275000Y-84325000D01*
X55275000Y-84325000D02*
X55925000Y-84325000D01*
X91825000Y-139825000D02*
X91575000Y-139825000D01*
X91575000Y-139825000D02*
X91575000Y-139175000D01*
X91575000Y-139175000D02*
X91825000Y-139175000D01*
X91825000Y-139175000D02*
X91825000Y-139825000D01*
X133800000Y-135300000D02*
G75*
G03X133800000Y-135300000I-8400000J0D01*
G01*
X71075000Y-84800000D02*
X71075000Y-86600000D01*
X71075000Y-86600000D02*
X68025000Y-86600000D01*
X68025000Y-86600000D02*
X68025000Y-84800000D01*
X68025000Y-84800000D02*
X71075000Y-84800000D01*
X57775000Y-102025000D02*
X58425000Y-102025000D01*
X57775000Y-102275000D02*
X57775000Y-102025000D01*
X58425000Y-102275000D02*
X57775000Y-102275000D01*
X58425000Y-102025000D02*
X58425000Y-102275000D01*
X56925000Y-102025000D02*
X56925000Y-102275000D01*
X56925000Y-102275000D02*
X56275000Y-102275000D01*
X56275000Y-102275000D02*
X56275000Y-102025000D01*
X56275000Y-102025000D02*
X56925000Y-102025000D01*
X78975000Y-68525000D02*
X78975000Y-67075000D01*
X78975000Y-67075000D02*
X80425000Y-67075000D01*
X80425000Y-67075000D02*
X80425000Y-68525000D01*
X80425000Y-68525000D02*
X78975000Y-68525000D01*
X60175000Y-99375000D02*
X59925000Y-99375000D01*
X59925000Y-99375000D02*
X59925000Y-98725000D01*
X59925000Y-98725000D02*
X60175000Y-98725000D01*
X60175000Y-98725000D02*
X60175000Y-99375000D01*
X63900000Y-64600000D02*
X80100000Y-64600000D01*
X63900000Y-59300000D02*
X63900000Y-64600000D01*
X63900000Y-49200000D02*
X63900000Y-56500000D01*
X80100000Y-49200000D02*
X63900000Y-49200000D01*
X80100000Y-56500000D02*
X80100000Y-49200000D01*
X80100000Y-64600000D02*
X80100000Y-59300000D01*
X128725000Y-116125000D02*
X128475000Y-116125000D01*
X128475000Y-116125000D02*
X128475000Y-115475000D01*
X128475000Y-115475000D02*
X128725000Y-115475000D01*
X128725000Y-115475000D02*
X128725000Y-116125000D01*
X57575000Y-147175000D02*
X57575000Y-147425000D01*
X57575000Y-147425000D02*
X56925000Y-147425000D01*
X56925000Y-147425000D02*
X56925000Y-147175000D01*
X56925000Y-147175000D02*
X57575000Y-147175000D01*
X129725000Y-122025000D02*
X129725000Y-122675000D01*
X129475000Y-122025000D02*
X129725000Y-122025000D01*
X129475000Y-122675000D02*
X129475000Y-122025000D01*
X129725000Y-122675000D02*
X129475000Y-122675000D01*
X77075000Y-138625000D02*
X77075000Y-138875000D01*
X77075000Y-138875000D02*
X76425000Y-138875000D01*
X76425000Y-138875000D02*
X76425000Y-138625000D01*
X76425000Y-138625000D02*
X77075000Y-138625000D01*
X74925000Y-138625000D02*
X75575000Y-138625000D01*
X74925000Y-138875000D02*
X74925000Y-138625000D01*
X75575000Y-138875000D02*
X74925000Y-138875000D01*
X75575000Y-138625000D02*
X75575000Y-138875000D01*
X69175000Y-111225000D02*
X69175000Y-110975000D01*
X69175000Y-110975000D02*
X69825000Y-110975000D01*
X69825000Y-110975000D02*
X69825000Y-111225000D01*
X69825000Y-111225000D02*
X69175000Y-111225000D01*
X64425000Y-147175000D02*
X65075000Y-147175000D01*
X64425000Y-147425000D02*
X64425000Y-147175000D01*
X65075000Y-147425000D02*
X64425000Y-147425000D01*
X65075000Y-147175000D02*
X65075000Y-147425000D01*
X60575000Y-147175000D02*
X60575000Y-147425000D01*
X60575000Y-147425000D02*
X59925000Y-147425000D01*
X59925000Y-147425000D02*
X59925000Y-147175000D01*
X59925000Y-147175000D02*
X60575000Y-147175000D01*
X64075000Y-84375000D02*
X64725000Y-84375000D01*
X64075000Y-84625000D02*
X64075000Y-84375000D01*
X64725000Y-84625000D02*
X64075000Y-84625000D01*
X64725000Y-84375000D02*
X64725000Y-84625000D01*
X84625000Y-114325000D02*
X84875000Y-114325000D01*
X84875000Y-114325000D02*
X84875000Y-114975000D01*
X84875000Y-114975000D02*
X84625000Y-114975000D01*
X84625000Y-114975000D02*
X84625000Y-114325000D01*
X85875000Y-133925000D02*
X86525000Y-133925000D01*
X85875000Y-134175000D02*
X85875000Y-133925000D01*
X86525000Y-134175000D02*
X85875000Y-134175000D01*
X86525000Y-133925000D02*
X86525000Y-134175000D01*
X138325000Y-146375000D02*
X138575000Y-146375000D01*
X138575000Y-146375000D02*
X138575000Y-147025000D01*
X138575000Y-147025000D02*
X138325000Y-147025000D01*
X138325000Y-147025000D02*
X138325000Y-146375000D01*
X129475000Y-124275000D02*
X129475000Y-123625000D01*
X129725000Y-124275000D02*
X129475000Y-124275000D01*
X129725000Y-123625000D02*
X129725000Y-124275000D01*
X129475000Y-123625000D02*
X129725000Y-123625000D01*
X55725000Y-63725000D02*
X55475000Y-63725000D01*
X55475000Y-63725000D02*
X55475000Y-63075000D01*
X55475000Y-63075000D02*
X55725000Y-63075000D01*
X55725000Y-63075000D02*
X55725000Y-63725000D01*
X65425000Y-65875000D02*
X65425000Y-66525000D01*
X65175000Y-65875000D02*
X65425000Y-65875000D01*
X65175000Y-66525000D02*
X65175000Y-65875000D01*
X65425000Y-66525000D02*
X65175000Y-66525000D01*
X78975000Y-72025000D02*
X78975000Y-71775000D01*
X78975000Y-71775000D02*
X79625000Y-71775000D01*
X79625000Y-71775000D02*
X79625000Y-72025000D01*
X79625000Y-72025000D02*
X78975000Y-72025000D01*
X81125000Y-72025000D02*
X80475000Y-72025000D01*
X81125000Y-71775000D02*
X81125000Y-72025000D01*
X80475000Y-71775000D02*
X81125000Y-71775000D01*
X80475000Y-72025000D02*
X80475000Y-71775000D01*
X72825000Y-90475000D02*
X72825000Y-90725000D01*
X72825000Y-90725000D02*
X72175000Y-90725000D01*
X72175000Y-90725000D02*
X72175000Y-90475000D01*
X72175000Y-90475000D02*
X72825000Y-90475000D01*
X75175000Y-90475000D02*
X75825000Y-90475000D01*
X75175000Y-90725000D02*
X75175000Y-90475000D01*
X75825000Y-90725000D02*
X75175000Y-90725000D01*
X75825000Y-90475000D02*
X75825000Y-90725000D01*
X64425000Y-80525000D02*
X64175000Y-80525000D01*
X64175000Y-80525000D02*
X64175000Y-79875000D01*
X64175000Y-79875000D02*
X64425000Y-79875000D01*
X64425000Y-79875000D02*
X64425000Y-80525000D01*
X131325000Y-119525000D02*
X130675000Y-119525000D01*
X131325000Y-119275000D02*
X131325000Y-119525000D01*
X130675000Y-119275000D02*
X131325000Y-119275000D01*
X130675000Y-119525000D02*
X130675000Y-119275000D01*
X79425000Y-87125000D02*
X79175000Y-87125000D01*
X79175000Y-87125000D02*
X79175000Y-86475000D01*
X79175000Y-86475000D02*
X79425000Y-86475000D01*
X79425000Y-86475000D02*
X79425000Y-87125000D01*
X79425000Y-87975000D02*
X79425000Y-88625000D01*
X79175000Y-87975000D02*
X79425000Y-87975000D01*
X79175000Y-88625000D02*
X79175000Y-87975000D01*
X79425000Y-88625000D02*
X79175000Y-88625000D01*
X79425000Y-90125000D02*
X79175000Y-90125000D01*
X79175000Y-90125000D02*
X79175000Y-89475000D01*
X79175000Y-89475000D02*
X79425000Y-89475000D01*
X79425000Y-89475000D02*
X79425000Y-90125000D01*
X79875000Y-77125000D02*
X79875000Y-76475000D01*
X80125000Y-77125000D02*
X79875000Y-77125000D01*
X80125000Y-76475000D02*
X80125000Y-77125000D01*
X79875000Y-76475000D02*
X80125000Y-76475000D01*
X111875000Y-128025000D02*
X111625000Y-128025000D01*
X111625000Y-128025000D02*
X111625000Y-127375000D01*
X111625000Y-127375000D02*
X111875000Y-127375000D01*
X111875000Y-127375000D02*
X111875000Y-128025000D01*
X56925000Y-129675000D02*
X56925000Y-130325000D01*
X56675000Y-129675000D02*
X56925000Y-129675000D01*
X56675000Y-130325000D02*
X56675000Y-129675000D01*
X56925000Y-130325000D02*
X56675000Y-130325000D01*
X56925000Y-128825000D02*
X56675000Y-128825000D01*
X56675000Y-128825000D02*
X56675000Y-128175000D01*
X56675000Y-128175000D02*
X56925000Y-128175000D01*
X56925000Y-128175000D02*
X56925000Y-128825000D01*
X74525000Y-111075000D02*
X73875000Y-111075000D01*
X74525000Y-110825000D02*
X74525000Y-111075000D01*
X73875000Y-110825000D02*
X74525000Y-110825000D01*
X73875000Y-111075000D02*
X73875000Y-110825000D01*
X56925000Y-131825000D02*
X56675000Y-131825000D01*
X56675000Y-131825000D02*
X56675000Y-131175000D01*
X56675000Y-131175000D02*
X56925000Y-131175000D01*
X56925000Y-131175000D02*
X56925000Y-131825000D01*
X63575000Y-147175000D02*
X63575000Y-147425000D01*
X63575000Y-147425000D02*
X62925000Y-147425000D01*
X62925000Y-147425000D02*
X62925000Y-147175000D01*
X62925000Y-147175000D02*
X63575000Y-147175000D01*
X64925000Y-138625000D02*
X65575000Y-138625000D01*
X64925000Y-138875000D02*
X64925000Y-138625000D01*
X65575000Y-138875000D02*
X64925000Y-138875000D01*
X65575000Y-138625000D02*
X65575000Y-138875000D01*
X79175000Y-83475000D02*
X79425000Y-83475000D01*
X79425000Y-83475000D02*
X79425000Y-84125000D01*
X79425000Y-84125000D02*
X79175000Y-84125000D01*
X79175000Y-84125000D02*
X79175000Y-83475000D01*
X57075000Y-62025000D02*
X57075000Y-61375000D01*
X57325000Y-62025000D02*
X57075000Y-62025000D01*
X57325000Y-61375000D02*
X57325000Y-62025000D01*
X57075000Y-61375000D02*
X57325000Y-61375000D01*
X81875000Y-96325000D02*
X81875000Y-95675000D01*
X82125000Y-96325000D02*
X81875000Y-96325000D01*
X82125000Y-95675000D02*
X82125000Y-96325000D01*
X81875000Y-95675000D02*
X82125000Y-95675000D01*
X78575000Y-138625000D02*
X78575000Y-138875000D01*
X78575000Y-138875000D02*
X77925000Y-138875000D01*
X77925000Y-138875000D02*
X77925000Y-138625000D01*
X77925000Y-138625000D02*
X78575000Y-138625000D01*
X79425000Y-80475000D02*
X79425000Y-81125000D01*
X79175000Y-80475000D02*
X79425000Y-80475000D01*
X79175000Y-81125000D02*
X79175000Y-80475000D01*
X79425000Y-81125000D02*
X79175000Y-81125000D01*
X70225000Y-94025000D02*
X69575000Y-94025000D01*
X70225000Y-93775000D02*
X70225000Y-94025000D01*
X69575000Y-93775000D02*
X70225000Y-93775000D01*
X69575000Y-94025000D02*
X69575000Y-93775000D01*
X79075000Y-94775000D02*
X78825000Y-94775000D01*
X78825000Y-94775000D02*
X78825000Y-94125000D01*
X78825000Y-94125000D02*
X79075000Y-94125000D01*
X79075000Y-94125000D02*
X79075000Y-94775000D01*
X142175000Y-116475000D02*
X142825000Y-116475000D01*
X142175000Y-116725000D02*
X142175000Y-116475000D01*
X142825000Y-116725000D02*
X142175000Y-116725000D01*
X142825000Y-116475000D02*
X142825000Y-116725000D01*
X144425000Y-116475000D02*
X144425000Y-116725000D01*
X144425000Y-116725000D02*
X143775000Y-116725000D01*
X143775000Y-116725000D02*
X143775000Y-116475000D01*
X143775000Y-116475000D02*
X144425000Y-116475000D01*
X140575000Y-116475000D02*
X141225000Y-116475000D01*
X140575000Y-116725000D02*
X140575000Y-116475000D01*
X141225000Y-116725000D02*
X140575000Y-116725000D01*
X141225000Y-116475000D02*
X141225000Y-116725000D01*
X137375000Y-116725000D02*
X137375000Y-116475000D01*
X137375000Y-116475000D02*
X138025000Y-116475000D01*
X138025000Y-116475000D02*
X138025000Y-116725000D01*
X138025000Y-116725000D02*
X137375000Y-116725000D01*
X135775000Y-116475000D02*
X136425000Y-116475000D01*
X135775000Y-116725000D02*
X135775000Y-116475000D01*
X136425000Y-116725000D02*
X135775000Y-116725000D01*
X136425000Y-116475000D02*
X136425000Y-116725000D01*
X74325000Y-90475000D02*
X74325000Y-90725000D01*
X74325000Y-90725000D02*
X73675000Y-90725000D01*
X73675000Y-90725000D02*
X73675000Y-90475000D01*
X73675000Y-90475000D02*
X74325000Y-90475000D01*
X85975000Y-141075000D02*
X85975000Y-141725000D01*
X85725000Y-141075000D02*
X85975000Y-141075000D01*
X85725000Y-141725000D02*
X85725000Y-141075000D01*
X85975000Y-141725000D02*
X85725000Y-141725000D01*
X108525000Y-130975000D02*
X108775000Y-130975000D01*
X108775000Y-130975000D02*
X108775000Y-131625000D01*
X108775000Y-131625000D02*
X108525000Y-131625000D01*
X108525000Y-131625000D02*
X108525000Y-130975000D01*
X108525000Y-130125000D02*
X108525000Y-129475000D01*
X108775000Y-130125000D02*
X108525000Y-130125000D01*
X108775000Y-129475000D02*
X108775000Y-130125000D01*
X108525000Y-129475000D02*
X108775000Y-129475000D01*
X119575000Y-144225000D02*
X119575000Y-143975000D01*
X119575000Y-143975000D02*
X120225000Y-143975000D01*
X120225000Y-143975000D02*
X120225000Y-144225000D01*
X120225000Y-144225000D02*
X119575000Y-144225000D01*
X61475000Y-111975000D02*
X61475000Y-112625000D01*
X61225000Y-111975000D02*
X61475000Y-111975000D01*
X61225000Y-112625000D02*
X61225000Y-111975000D01*
X61475000Y-112625000D02*
X61225000Y-112625000D01*
X84625000Y-115825000D02*
X84875000Y-115825000D01*
X84875000Y-115825000D02*
X84875000Y-116475000D01*
X84875000Y-116475000D02*
X84625000Y-116475000D01*
X84625000Y-116475000D02*
X84625000Y-115825000D01*
X87525000Y-125925000D02*
X87525000Y-125275000D01*
X87775000Y-125925000D02*
X87525000Y-125925000D01*
X87775000Y-125275000D02*
X87775000Y-125925000D01*
X87525000Y-125275000D02*
X87775000Y-125275000D01*
X70475000Y-138625000D02*
X70475000Y-138875000D01*
X70475000Y-138875000D02*
X69825000Y-138875000D01*
X69825000Y-138875000D02*
X69825000Y-138625000D01*
X69825000Y-138625000D02*
X70475000Y-138625000D01*
X57975000Y-121975000D02*
X57725000Y-121975000D01*
X57725000Y-121975000D02*
X57725000Y-121325000D01*
X57725000Y-121325000D02*
X57975000Y-121325000D01*
X57975000Y-121325000D02*
X57975000Y-121975000D01*
X85775000Y-121575000D02*
X85775000Y-120925000D01*
X86025000Y-121575000D02*
X85775000Y-121575000D01*
X86025000Y-120925000D02*
X86025000Y-121575000D01*
X85775000Y-120925000D02*
X86025000Y-120925000D01*
X56925000Y-133575000D02*
X56675000Y-133575000D01*
X56675000Y-133575000D02*
X56675000Y-132925000D01*
X56675000Y-132925000D02*
X56925000Y-132925000D01*
X56925000Y-132925000D02*
X56925000Y-133575000D01*
X129625000Y-143775000D02*
X129625000Y-144425000D01*
X129375000Y-143775000D02*
X129625000Y-143775000D01*
X129375000Y-144425000D02*
X129375000Y-143775000D01*
X129625000Y-144425000D02*
X129375000Y-144425000D01*
X85025000Y-133925000D02*
X85025000Y-134175000D01*
X85025000Y-134175000D02*
X84375000Y-134175000D01*
X84375000Y-134175000D02*
X84375000Y-133925000D01*
X84375000Y-133925000D02*
X85025000Y-133925000D01*
X144225000Y-144525000D02*
X143575000Y-144525000D01*
X144225000Y-144275000D02*
X144225000Y-144525000D01*
X143575000Y-144275000D02*
X144225000Y-144275000D01*
X143575000Y-144525000D02*
X143575000Y-144275000D01*
X145075000Y-144525000D02*
X145075000Y-144275000D01*
X145075000Y-144275000D02*
X145725000Y-144275000D01*
X145725000Y-144275000D02*
X145725000Y-144525000D01*
X145725000Y-144525000D02*
X145075000Y-144525000D01*
X129625000Y-145275000D02*
X129625000Y-145925000D01*
X129375000Y-145275000D02*
X129625000Y-145275000D01*
X129375000Y-145925000D02*
X129375000Y-145275000D01*
X129625000Y-145925000D02*
X129375000Y-145925000D01*
X69125000Y-89425000D02*
X69375000Y-89425000D01*
X69375000Y-89425000D02*
X69375000Y-90075000D01*
X69375000Y-90075000D02*
X69125000Y-90075000D01*
X69125000Y-90075000D02*
X69125000Y-89425000D01*
X79425000Y-84975000D02*
X79425000Y-85625000D01*
X79175000Y-84975000D02*
X79425000Y-84975000D01*
X79175000Y-85625000D02*
X79175000Y-84975000D01*
X79425000Y-85625000D02*
X79175000Y-85625000D01*
X146025000Y-116725000D02*
X145375000Y-116725000D01*
X146025000Y-116475000D02*
X146025000Y-116725000D01*
X145375000Y-116475000D02*
X146025000Y-116475000D01*
X145375000Y-116725000D02*
X145375000Y-116475000D01*
X114725000Y-127375000D02*
X114975000Y-127375000D01*
X114975000Y-127375000D02*
X114975000Y-128025000D01*
X114975000Y-128025000D02*
X114725000Y-128025000D01*
X114725000Y-128025000D02*
X114725000Y-127375000D01*
X139625000Y-116725000D02*
X138975000Y-116725000D01*
X139625000Y-116475000D02*
X139625000Y-116725000D01*
X138975000Y-116475000D02*
X139625000Y-116475000D01*
X138975000Y-116725000D02*
X138975000Y-116475000D01*
X89725000Y-140175000D02*
X89725000Y-140425000D01*
X89725000Y-140425000D02*
X89075000Y-140425000D01*
X89075000Y-140425000D02*
X89075000Y-140175000D01*
X89075000Y-140175000D02*
X89725000Y-140175000D01*
X91825000Y-140675000D02*
X91825000Y-141325000D01*
X91575000Y-140675000D02*
X91825000Y-140675000D01*
X91575000Y-141325000D02*
X91575000Y-140675000D01*
X91825000Y-141325000D02*
X91575000Y-141325000D01*
X108775000Y-132475000D02*
X108775000Y-133125000D01*
X108525000Y-132475000D02*
X108775000Y-132475000D01*
X108525000Y-133125000D02*
X108525000Y-132475000D01*
X108775000Y-133125000D02*
X108525000Y-133125000D01*
X114725000Y-125875000D02*
X114975000Y-125875000D01*
X114975000Y-125875000D02*
X114975000Y-126525000D01*
X114975000Y-126525000D02*
X114725000Y-126525000D01*
X114725000Y-126525000D02*
X114725000Y-125875000D01*
X108775000Y-127975000D02*
X108775000Y-128625000D01*
X108525000Y-127975000D02*
X108775000Y-127975000D01*
X108525000Y-128625000D02*
X108525000Y-127975000D01*
X108775000Y-128625000D02*
X108525000Y-128625000D01*
X145375000Y-119925000D02*
X145375000Y-119675000D01*
X145375000Y-119675000D02*
X146025000Y-119675000D01*
X146025000Y-119675000D02*
X146025000Y-119925000D01*
X146025000Y-119925000D02*
X145375000Y-119925000D01*
X58425000Y-147175000D02*
X59075000Y-147175000D01*
X58425000Y-147425000D02*
X58425000Y-147175000D01*
X59075000Y-147425000D02*
X58425000Y-147425000D01*
X59075000Y-147175000D02*
X59075000Y-147425000D01*
X79425000Y-82625000D02*
X79175000Y-82625000D01*
X79175000Y-82625000D02*
X79175000Y-81975000D01*
X79175000Y-81975000D02*
X79425000Y-81975000D01*
X79425000Y-81975000D02*
X79425000Y-82625000D01*
X55125000Y-61125000D02*
X54475000Y-61125000D01*
X55125000Y-60875000D02*
X55125000Y-61125000D01*
X54475000Y-60875000D02*
X55125000Y-60875000D01*
X54475000Y-61125000D02*
X54475000Y-60875000D01*
X61175000Y-78275000D02*
X61425000Y-78275000D01*
X61425000Y-78275000D02*
X61425000Y-78925000D01*
X61425000Y-78925000D02*
X61175000Y-78925000D01*
X61175000Y-78925000D02*
X61175000Y-78275000D01*
X59825000Y-79975000D02*
X59825000Y-80625000D01*
X59575000Y-79975000D02*
X59825000Y-79975000D01*
X59575000Y-80625000D02*
X59575000Y-79975000D01*
X59825000Y-80625000D02*
X59575000Y-80625000D01*
X61925000Y-87775000D02*
X61675000Y-87775000D01*
X61675000Y-87775000D02*
X61675000Y-87125000D01*
X61675000Y-87125000D02*
X61925000Y-87125000D01*
X61925000Y-87125000D02*
X61925000Y-87775000D01*
X64075000Y-88025000D02*
X64075000Y-87775000D01*
X64075000Y-87775000D02*
X64725000Y-87775000D01*
X64725000Y-87775000D02*
X64725000Y-88025000D01*
X64725000Y-88025000D02*
X64075000Y-88025000D01*
X64725000Y-92925000D02*
X64725000Y-93575000D01*
X64475000Y-92925000D02*
X64725000Y-92925000D01*
X64475000Y-93575000D02*
X64475000Y-92925000D01*
X64725000Y-93575000D02*
X64475000Y-93575000D01*
X60175000Y-90625000D02*
X60175000Y-91275000D01*
X59925000Y-90625000D02*
X60175000Y-90625000D01*
X59925000Y-91275000D02*
X59925000Y-90625000D01*
X60175000Y-91275000D02*
X59925000Y-91275000D01*
X56825000Y-95125000D02*
X56825000Y-94875000D01*
X56825000Y-94875000D02*
X57475000Y-94875000D01*
X57475000Y-94875000D02*
X57475000Y-95125000D01*
X57475000Y-95125000D02*
X56825000Y-95125000D01*
X69125000Y-82025000D02*
X69125000Y-81375000D01*
X69375000Y-82025000D02*
X69125000Y-82025000D01*
X69375000Y-81375000D02*
X69375000Y-82025000D01*
X69125000Y-81375000D02*
X69375000Y-81375000D01*
X126275000Y-122525000D02*
X126275000Y-122275000D01*
X126275000Y-122275000D02*
X126925000Y-122275000D01*
X126925000Y-122275000D02*
X126925000Y-122525000D01*
X126925000Y-122525000D02*
X126275000Y-122525000D01*
X132925000Y-119525000D02*
X132275000Y-119525000D01*
X132925000Y-119275000D02*
X132925000Y-119525000D01*
X132275000Y-119275000D02*
X132925000Y-119275000D01*
X132275000Y-119525000D02*
X132275000Y-119275000D01*
X62075000Y-147175000D02*
X62075000Y-147425000D01*
X62075000Y-147425000D02*
X61425000Y-147425000D01*
X61425000Y-147425000D02*
X61425000Y-147175000D01*
X61425000Y-147175000D02*
X62075000Y-147175000D01*
X144475000Y-133325000D02*
X145125000Y-133325000D01*
X144475000Y-133575000D02*
X144475000Y-133325000D01*
X145125000Y-133575000D02*
X144475000Y-133575000D01*
X145125000Y-133325000D02*
X145125000Y-133575000D01*
X140875000Y-136675000D02*
X140625000Y-136675000D01*
X140625000Y-136675000D02*
X140625000Y-136025000D01*
X140625000Y-136025000D02*
X140875000Y-136025000D01*
X140875000Y-136025000D02*
X140875000Y-136675000D01*
X136375000Y-133325000D02*
X137025000Y-133325000D01*
X136375000Y-133575000D02*
X136375000Y-133325000D01*
X137025000Y-133575000D02*
X136375000Y-133575000D01*
X137025000Y-133325000D02*
X137025000Y-133575000D01*
X79875000Y-78725000D02*
X79875000Y-78075000D01*
X80125000Y-78725000D02*
X79875000Y-78725000D01*
X80125000Y-78075000D02*
X80125000Y-78725000D01*
X79875000Y-78075000D02*
X80125000Y-78075000D01*
X145125000Y-128025000D02*
X145125000Y-128275000D01*
X145125000Y-128275000D02*
X144475000Y-128275000D01*
X144475000Y-128275000D02*
X144475000Y-128025000D01*
X144475000Y-128025000D02*
X145125000Y-128025000D01*
X140875000Y-130675000D02*
X140875000Y-131325000D01*
X140625000Y-130675000D02*
X140875000Y-130675000D01*
X140625000Y-131325000D02*
X140625000Y-130675000D01*
X140875000Y-131325000D02*
X140625000Y-131325000D01*
X137025000Y-128025000D02*
X137025000Y-128275000D01*
X137025000Y-128275000D02*
X136375000Y-128275000D01*
X136375000Y-128275000D02*
X136375000Y-128025000D01*
X136375000Y-128025000D02*
X137025000Y-128025000D01*
X116775000Y-116375000D02*
X117025000Y-116375000D01*
X117025000Y-116375000D02*
X117025000Y-117025000D01*
X117025000Y-117025000D02*
X116775000Y-117025000D01*
X116775000Y-117025000D02*
X116775000Y-116375000D01*
X116425000Y-122175000D02*
X116425000Y-122425000D01*
X116425000Y-122425000D02*
X115775000Y-122425000D01*
X115775000Y-122425000D02*
X115775000Y-122175000D01*
X115775000Y-122175000D02*
X116425000Y-122175000D01*
X61475000Y-110475000D02*
X61475000Y-111125000D01*
X61225000Y-110475000D02*
X61475000Y-110475000D01*
X61225000Y-111125000D02*
X61225000Y-110475000D01*
X61475000Y-111125000D02*
X61225000Y-111125000D01*
X124675000Y-122525000D02*
X124675000Y-122275000D01*
X124675000Y-122275000D02*
X125325000Y-122275000D01*
X125325000Y-122275000D02*
X125325000Y-122525000D01*
X125325000Y-122525000D02*
X124675000Y-122525000D01*
X53575000Y-128500000D02*
X53825000Y-128175000D01*
X53575000Y-128500000D02*
X53825000Y-128825000D01*
X53825000Y-128175000D02*
X53825000Y-128825000D01*
X53825000Y-129675000D02*
X53825000Y-130325000D01*
X53575000Y-130000000D02*
X53825000Y-130325000D01*
X53575000Y-130000000D02*
X53825000Y-129675000D01*
X53575000Y-131500000D02*
X53825000Y-131175000D01*
X53575000Y-131500000D02*
X53825000Y-131825000D01*
X53825000Y-131175000D02*
X53825000Y-131825000D01*
X76245000Y-71470000D02*
X76245000Y-76730000D01*
X76245000Y-76730000D02*
X67355000Y-76730000D01*
X67355000Y-76730000D02*
X67355000Y-70870000D01*
X67355000Y-70870000D02*
X75645000Y-70870000D01*
X75645000Y-70870000D02*
X76245000Y-71470000D01*
X114400000Y-100600000D02*
X92600000Y-100600000D01*
X92600000Y-100600000D02*
X92600000Y-123400000D01*
X92600000Y-123400000D02*
X114400000Y-123400000D01*
X114400000Y-123400000D02*
X114400000Y-100600000D01*
X106400000Y-91400000D02*
X93600000Y-91400000D01*
X93600000Y-91400000D02*
X93600000Y-85600000D01*
X93600000Y-85600000D02*
X106400000Y-85600000D01*
X106400000Y-85600000D02*
X106400000Y-91400000D01*
X98900000Y-93100000D02*
X98900000Y-98900000D01*
X86100000Y-93100000D02*
X98900000Y-93100000D01*
X86100000Y-98900000D02*
X86100000Y-93100000D01*
X98900000Y-98900000D02*
X86100000Y-98900000D01*
X113900000Y-98900000D02*
X101100000Y-98900000D01*
X101100000Y-98900000D02*
X101100000Y-93100000D01*
X101100000Y-93100000D02*
X113900000Y-93100000D01*
X113900000Y-93100000D02*
X113900000Y-98900000D01*
X62510000Y-105535500D02*
X62510000Y-104710000D01*
X62510000Y-104710000D02*
X63970500Y-104710000D01*
X63970500Y-104710000D02*
X63970500Y-105535500D01*
X67590000Y-105535500D02*
X67590000Y-104710000D01*
X67590000Y-104710000D02*
X66129500Y-104710000D01*
X66129500Y-104710000D02*
X66129500Y-105535500D01*
X67590000Y-108964500D02*
X67590000Y-109790000D01*
X67590000Y-109790000D02*
X62510000Y-109790000D01*
X62510000Y-109790000D02*
X62510000Y-108964500D01*
X65050000Y-108964500D02*
X61875000Y-108964500D01*
X61875000Y-108964500D02*
X61875000Y-105535500D01*
X61875000Y-105535500D02*
X68225000Y-105535500D01*
X68225000Y-105535500D02*
X68225000Y-108964500D01*
X68225000Y-108964500D02*
X65050000Y-108964500D01*
X53900000Y-74250000D02*
X53900000Y-68150000D01*
X53900000Y-68150000D02*
X62700000Y-68150000D01*
X62700000Y-68150000D02*
X62700000Y-74850000D01*
X62700000Y-74850000D02*
X54500000Y-74850000D01*
X54500000Y-74850000D02*
X53900000Y-74250000D01*
X59200000Y-84125000D02*
X59200000Y-85475000D01*
X59200000Y-85475000D02*
X57200000Y-85475000D01*
X57200000Y-85475000D02*
X57200000Y-83525000D01*
X57200000Y-83525000D02*
X58600000Y-83525000D01*
X58600000Y-83525000D02*
X59200000Y-84125000D01*
X140375000Y-132725000D02*
X141725000Y-132725000D01*
X141725000Y-132725000D02*
X141725000Y-134675000D01*
X141725000Y-134675000D02*
X139775000Y-134675000D01*
X139775000Y-134675000D02*
X139775000Y-133325000D01*
X139775000Y-133325000D02*
X140375000Y-132725000D01*
X139775000Y-128025000D02*
X140375000Y-127425000D01*
X139775000Y-129375000D02*
X139775000Y-128025000D01*
X141725000Y-129375000D02*
X139775000Y-129375000D01*
X141725000Y-127425000D02*
X141725000Y-129375000D01*
X140375000Y-127425000D02*
X141725000Y-127425000D01*
X123325000Y-120375000D02*
X123325000Y-121725000D01*
X123325000Y-121725000D02*
X121375000Y-121725000D01*
X121375000Y-121725000D02*
X121375000Y-119775000D01*
X121375000Y-119775000D02*
X122725000Y-119775000D01*
X122725000Y-119775000D02*
X123325000Y-120375000D01*
X60175000Y-94025000D02*
X60775000Y-94625000D01*
X58825000Y-94025000D02*
X60175000Y-94025000D01*
X58825000Y-95975000D02*
X58825000Y-94025000D01*
X60775000Y-95975000D02*
X58825000Y-95975000D01*
X60775000Y-94625000D02*
X60775000Y-95975000D01*
X113025000Y-129275000D02*
X114375000Y-129275000D01*
X114375000Y-129275000D02*
X114375000Y-131225000D01*
X114375000Y-131225000D02*
X112425000Y-131225000D01*
X112425000Y-131225000D02*
X112425000Y-129875000D01*
X112425000Y-129875000D02*
X113025000Y-129275000D01*
X141400000Y-119050000D02*
X141750000Y-118700000D01*
X144050000Y-118700000D02*
X144400000Y-118700000D01*
X144400000Y-118700000D02*
X144400000Y-119050000D01*
X144050000Y-121700000D02*
X144400000Y-121700000D01*
X144400000Y-121700000D02*
X144400000Y-121350000D01*
X141750000Y-121700000D02*
X141400000Y-121700000D01*
X141400000Y-121700000D02*
X141400000Y-121350000D01*
X75950000Y-83300000D02*
X76300000Y-83650000D01*
X76300000Y-86950000D02*
X76300000Y-87300000D01*
X76300000Y-87300000D02*
X75950000Y-87300000D01*
X72300000Y-86950000D02*
X72300000Y-87300000D01*
X72300000Y-87300000D02*
X72650000Y-87300000D01*
X72300000Y-83650000D02*
X72300000Y-83300000D01*
X72300000Y-83300000D02*
X72650000Y-83300000D01*
X129450000Y-119525000D02*
X129450000Y-119525000D01*
X129450000Y-119525000D02*
X128150000Y-119525000D01*
X128150000Y-119525000D02*
X128150000Y-119275000D01*
X128150000Y-119275000D02*
X129200000Y-119275000D01*
X129200000Y-119275000D02*
X129450000Y-119525000D01*
X56700000Y-58400000D02*
X59300000Y-58400000D01*
X54600000Y-53700000D02*
X54600000Y-56300000D01*
X61400000Y-53700000D02*
X61400000Y-56300000D01*
X56700000Y-51600000D02*
X59300000Y-51600000D01*
X112725000Y-141300000D02*
X111075000Y-141300000D01*
X111075000Y-140750000D02*
X112725000Y-140750000D01*
X111075000Y-142950000D02*
X111075000Y-140750000D01*
X112725000Y-142950000D02*
X111075000Y-142950000D01*
X112725000Y-140750000D02*
X112725000Y-142950000D01*
X108125000Y-140750000D02*
X108125000Y-142950000D01*
X108125000Y-142950000D02*
X106475000Y-142950000D01*
X106475000Y-142950000D02*
X106475000Y-140750000D01*
X106475000Y-140750000D02*
X108125000Y-140750000D01*
X108125000Y-141300000D02*
X106475000Y-141300000D01*
X110425000Y-141300000D02*
X108775000Y-141300000D01*
X108775000Y-140750000D02*
X110425000Y-140750000D01*
X108775000Y-142950000D02*
X108775000Y-140750000D01*
X110425000Y-142950000D02*
X108775000Y-142950000D01*
X110425000Y-140750000D02*
X110425000Y-142950000D01*
X115025000Y-140750000D02*
X115025000Y-142950000D01*
X115025000Y-142950000D02*
X113375000Y-142950000D01*
X113375000Y-142950000D02*
X113375000Y-140750000D01*
X113375000Y-140750000D02*
X115025000Y-140750000D01*
X115025000Y-141300000D02*
X113375000Y-141300000D01*
X117750000Y-123250000D02*
X117750000Y-123250000D01*
X117750000Y-123250000D02*
X119650000Y-123250000D01*
X119650000Y-123250000D02*
X119650000Y-123550000D01*
X119650000Y-123550000D02*
X118050000Y-123550000D01*
X118050000Y-123550000D02*
X117750000Y-123250000D01*
X118050000Y-119600000D02*
X117750000Y-119300000D01*
X119650000Y-119600000D02*
X118050000Y-119600000D01*
X119650000Y-119300000D02*
X119650000Y-119600000D01*
X117750000Y-119300000D02*
X119650000Y-119300000D01*
X117750000Y-119300000D02*
X117750000Y-119300000D01*
X117100000Y-145250000D02*
X117100000Y-145250000D01*
X117100000Y-145250000D02*
X117100000Y-143350000D01*
X117100000Y-143350000D02*
X117400000Y-143350000D01*
X117400000Y-143350000D02*
X117400000Y-144950000D01*
X117400000Y-144950000D02*
X117100000Y-145250000D01*
X62750000Y-84750000D02*
X62750000Y-84750000D01*
X62750000Y-84750000D02*
X60850000Y-84750000D01*
X60850000Y-84750000D02*
X60850000Y-84250000D01*
X60850000Y-84250000D02*
X62250000Y-84250000D01*
X62250000Y-84250000D02*
X62750000Y-84750000D01*
X71750000Y-139050000D02*
X71750000Y-139050000D01*
X71750000Y-139050000D02*
X73650000Y-139050000D01*
X73650000Y-139050000D02*
X73650000Y-139550000D01*
X73650000Y-139550000D02*
X72250000Y-139550000D01*
X72250000Y-139550000D02*
X71750000Y-139050000D01*
X139925000Y-145025000D02*
X136375000Y-145025000D01*
X136375000Y-145025000D02*
X136375000Y-139175000D01*
X136375000Y-139175000D02*
X140525000Y-139175000D01*
X140525000Y-139175000D02*
X140525000Y-144425000D01*
X140525000Y-144425000D02*
X139925000Y-145025000D01*
X64950000Y-96300000D02*
X64650000Y-96050000D01*
X64650000Y-94700000D02*
X64650000Y-96050000D01*
X65550000Y-94700000D02*
X64650000Y-94700000D01*
X65550000Y-96300000D02*
X65550000Y-94700000D01*
X64950000Y-96300000D02*
X65550000Y-96300000D01*
X115500000Y-86000000D02*
X147500000Y-86000000D01*
X147500000Y-86000000D02*
X147500000Y-113000000D01*
X147500000Y-113000000D02*
X115500000Y-113000000D01*
X115500000Y-113000000D02*
X115500000Y-86000000D01*
X132959523Y-71552380D02*
X132483333Y-71552380D01*
X132483333Y-70552380D01*
X126364285Y-71552380D02*
X126364285Y-70552380D01*
X126935714Y-71552380D01*
X126935714Y-70552380D01*
X96735714Y-71552380D02*
X96735714Y-70552380D01*
X97116666Y-70552380D01*
X97211904Y-70600000D01*
X97259523Y-70647619D01*
X97307142Y-70742857D01*
X97307142Y-70885714D01*
X97259523Y-70980952D01*
X97211904Y-71028571D01*
X97116666Y-71076190D01*
X96735714Y-71076190D01*
X97735714Y-71028571D02*
X98069047Y-71028571D01*
X98211904Y-71552380D02*
X97735714Y-71552380D01*
X97735714Y-70552380D01*
X98211904Y-70552380D01*
X123771428Y-139480952D02*
X123771428Y-138719047D01*
X124152380Y-139100000D02*
X123390476Y-139100000D01*
X123771428Y-131880952D02*
X123771428Y-131119047D01*
X102500000Y-103452380D02*
X102500000Y-102452380D01*
X102880952Y-102452380D01*
X102976190Y-102500000D01*
X103023809Y-102547619D01*
X103071428Y-102642857D01*
X103071428Y-102785714D01*
X103023809Y-102880952D01*
X102976190Y-102928571D01*
X102880952Y-102976190D01*
X102500000Y-102976190D01*
X104071428Y-103452380D02*
X103738095Y-102976190D01*
X103500000Y-103452380D02*
X103500000Y-102452380D01*
X103880952Y-102452380D01*
X103976190Y-102500000D01*
X104023809Y-102547619D01*
X104071428Y-102642857D01*
X104071428Y-102785714D01*
X104023809Y-102880952D01*
X103976190Y-102928571D01*
X103880952Y-102976190D01*
X103500000Y-102976190D01*
X104500000Y-103452380D02*
X104500000Y-102452380D01*
X102261904Y-121404761D02*
X102404761Y-121452380D01*
X102642857Y-121452380D01*
X102738095Y-121404761D01*
X102785714Y-121357142D01*
X102833333Y-121261904D01*
X102833333Y-121166666D01*
X102785714Y-121071428D01*
X102738095Y-121023809D01*
X102642857Y-120976190D01*
X102452380Y-120928571D01*
X102357142Y-120880952D01*
X102309523Y-120833333D01*
X102261904Y-120738095D01*
X102261904Y-120642857D01*
X102309523Y-120547619D01*
X102357142Y-120500000D01*
X102452380Y-120452380D01*
X102690476Y-120452380D01*
X102833333Y-120500000D01*
X103261904Y-120928571D02*
X103595238Y-120928571D01*
X103738095Y-121452380D02*
X103261904Y-121452380D01*
X103261904Y-120452380D01*
X103738095Y-120452380D01*
X104738095Y-121357142D02*
X104690476Y-121404761D01*
X104547619Y-121452380D01*
X104452380Y-121452380D01*
X104309523Y-121404761D01*
X104214285Y-121309523D01*
X104166666Y-121214285D01*
X104119047Y-121023809D01*
X104119047Y-120880952D01*
X104166666Y-120690476D01*
X104214285Y-120595238D01*
X104309523Y-120500000D01*
X104452380Y-120452380D01*
X104547619Y-120452380D01*
X104690476Y-120500000D01*
X104738095Y-120547619D01*
%LPC*%
D16*
X77000000Y-89800000D03*
X77000000Y-91400000D03*
D17*
X62750000Y-135450000D03*
X63250000Y-135450000D03*
X63750000Y-135450000D03*
X64250000Y-135450000D03*
X64750000Y-135450000D03*
X65250000Y-135450000D03*
X65750000Y-135450000D03*
X66250000Y-135450000D03*
X66750000Y-135450000D03*
X67250000Y-135450000D03*
X67750000Y-135450000D03*
X68250000Y-135450000D03*
X68750000Y-135450000D03*
X69250000Y-135450000D03*
X69750000Y-135450000D03*
X70250000Y-135450000D03*
X70750000Y-135450000D03*
X71250000Y-135450000D03*
X71750000Y-135450000D03*
X72250000Y-135450000D03*
X72750000Y-135450000D03*
X73250000Y-135450000D03*
X73750000Y-135450000D03*
X74250000Y-135450000D03*
X74750000Y-135450000D03*
X75250000Y-135450000D03*
X75750000Y-135450000D03*
X76250000Y-135450000D03*
X76750000Y-135450000D03*
X77250000Y-135450000D03*
X77750000Y-135450000D03*
X78250000Y-135450000D03*
X78750000Y-135450000D03*
X79250000Y-135450000D03*
X79750000Y-135450000D03*
X80250000Y-135450000D03*
D18*
X82200000Y-133500000D03*
X82200000Y-133000000D03*
X82200000Y-132500000D03*
X82200000Y-132000000D03*
X82200000Y-131500000D03*
X82200000Y-131000000D03*
X82200000Y-130500000D03*
X82200000Y-130000000D03*
X82200000Y-129500000D03*
X82200000Y-129000000D03*
X82200000Y-128500000D03*
X82200000Y-128000000D03*
X82200000Y-127500000D03*
X82200000Y-127000000D03*
X82200000Y-126500000D03*
X82200000Y-126000000D03*
X82200000Y-125500000D03*
X82200000Y-125000000D03*
X82200000Y-124500000D03*
X82200000Y-124000000D03*
X82200000Y-123500000D03*
X82200000Y-123000000D03*
X82200000Y-122500000D03*
X82200000Y-122000000D03*
X82200000Y-121500000D03*
X82200000Y-121000000D03*
X82200000Y-120500000D03*
X82200000Y-120000000D03*
X82200000Y-119500000D03*
X82200000Y-119000000D03*
X82200000Y-118500000D03*
X82200000Y-118000000D03*
X82200000Y-117500000D03*
X82200000Y-117000000D03*
X82200000Y-116500000D03*
X82200000Y-116000000D03*
D17*
X80250000Y-114050000D03*
X79750000Y-114050000D03*
X79250000Y-114050000D03*
X78750000Y-114050000D03*
X78250000Y-114050000D03*
X77750000Y-114050000D03*
X77250000Y-114050000D03*
X76750000Y-114050000D03*
X76250000Y-114050000D03*
X75750000Y-114050000D03*
X75250000Y-114050000D03*
X74750000Y-114050000D03*
X74250000Y-114050000D03*
X73750000Y-114050000D03*
X73250000Y-114050000D03*
X72750000Y-114050000D03*
X72250000Y-114050000D03*
X71750000Y-114050000D03*
X71250000Y-114050000D03*
X70750000Y-114050000D03*
X70250000Y-114050000D03*
X69750000Y-114050000D03*
X69250000Y-114050000D03*
X68750000Y-114050000D03*
X68250000Y-114050000D03*
X67750000Y-114050000D03*
X67250000Y-114050000D03*
X66750000Y-114050000D03*
X66250000Y-114050000D03*
X65750000Y-114050000D03*
X65250000Y-114050000D03*
X64750000Y-114050000D03*
X64250000Y-114050000D03*
X63750000Y-114050000D03*
X63250000Y-114050000D03*
X62750000Y-114050000D03*
D18*
X60800000Y-116000000D03*
X60800000Y-116500000D03*
X60800000Y-117000000D03*
X60800000Y-117500000D03*
X60800000Y-118000000D03*
X60800000Y-118500000D03*
X60800000Y-119000000D03*
X60800000Y-119500000D03*
X60800000Y-120000000D03*
X60800000Y-120500000D03*
X60800000Y-121000000D03*
X60800000Y-121500000D03*
X60800000Y-122000000D03*
X60800000Y-122500000D03*
X60800000Y-123000000D03*
X60800000Y-123500000D03*
X60800000Y-124000000D03*
X60800000Y-124500000D03*
X60800000Y-125000000D03*
X60800000Y-125500000D03*
X60800000Y-126000000D03*
X60800000Y-126500000D03*
X60800000Y-127000000D03*
X60800000Y-127500000D03*
X60800000Y-128000000D03*
X60800000Y-128500000D03*
X60800000Y-129000000D03*
X60800000Y-129500000D03*
X60800000Y-130000000D03*
X60800000Y-130500000D03*
X60800000Y-131000000D03*
X60800000Y-131500000D03*
X60800000Y-132000000D03*
X60800000Y-132500000D03*
X60800000Y-133000000D03*
X60800000Y-133500000D03*
D19*
X143000000Y-59500000D03*
X87000000Y-59500000D03*
D20*
X97450000Y-69050000D03*
D21*
X132650000Y-69050000D03*
X126650000Y-69050000D03*
D16*
X57700000Y-123300000D03*
X57700000Y-124900000D03*
X56200000Y-124900000D03*
X56200000Y-123300000D03*
X54700000Y-123300000D03*
X54700000Y-124900000D03*
D22*
X56000000Y-126850000D03*
X57600000Y-126850000D03*
D16*
X116100000Y-118300000D03*
X116100000Y-119900000D03*
X55600000Y-85250000D03*
X55600000Y-83650000D03*
D22*
X92500000Y-139500000D03*
X90900000Y-139500000D03*
D23*
X125400000Y-131500000D03*
X125400000Y-139100000D03*
D24*
X69550000Y-83650000D03*
X69550000Y-87750000D03*
D16*
X58100000Y-102950000D03*
X58100000Y-101350000D03*
X56600000Y-101350000D03*
X56600000Y-102950000D03*
D25*
X79700000Y-69300000D03*
X79700000Y-66300000D03*
D22*
X59250000Y-99050000D03*
X60850000Y-99050000D03*
D26*
X63872000Y-57929000D03*
X80128000Y-57929000D03*
D27*
X65650000Y-54500000D03*
X78350000Y-54500000D03*
D28*
X67428000Y-63644000D03*
X76572000Y-63644000D03*
X65142000Y-63644000D03*
X78858000Y-63644000D03*
X68444000Y-57040000D03*
X70476000Y-57040000D03*
X72508000Y-57040000D03*
X74540000Y-57040000D03*
X69460000Y-58818000D03*
X71492000Y-58818000D03*
X73524000Y-58818000D03*
X75556000Y-58818000D03*
D22*
X127800000Y-115800000D03*
X129400000Y-115800000D03*
D23*
X138000000Y-121500000D03*
X138000000Y-123500000D03*
D29*
X135900000Y-120000000D03*
X135900000Y-125000000D03*
D30*
X91600000Y-143400000D03*
X91600000Y-142500000D03*
X90400000Y-142500000D03*
X90400000Y-143400000D03*
X89200000Y-143400000D03*
X89200000Y-142500000D03*
X88000000Y-142500000D03*
X88000000Y-143400000D03*
X57100000Y-59800000D03*
X58000000Y-59800000D03*
D16*
X57250000Y-146500000D03*
X57250000Y-148100000D03*
D22*
X128800000Y-122350000D03*
X130400000Y-122350000D03*
D16*
X76750000Y-137950000D03*
X76750000Y-139550000D03*
X75250000Y-139550000D03*
X75250000Y-137950000D03*
X69500000Y-111900000D03*
X69500000Y-110300000D03*
X64750000Y-148100000D03*
X64750000Y-146500000D03*
X60250000Y-146500000D03*
X60250000Y-148100000D03*
X64400000Y-85300000D03*
X64400000Y-83700000D03*
D22*
X83950000Y-114650000D03*
X85550000Y-114650000D03*
D16*
X86200000Y-134850000D03*
X86200000Y-133250000D03*
D22*
X137650000Y-146700000D03*
X139250000Y-146700000D03*
X130400000Y-123950000D03*
X128800000Y-123950000D03*
X56400000Y-63400000D03*
X54800000Y-63400000D03*
X64500000Y-66200000D03*
X66100000Y-66200000D03*
D16*
X79300000Y-72700000D03*
X79300000Y-71100000D03*
X80800000Y-71100000D03*
X80800000Y-72700000D03*
X72500000Y-89800000D03*
X72500000Y-91400000D03*
X75500000Y-91400000D03*
X75500000Y-89800000D03*
D22*
X65100000Y-80200000D03*
X63500000Y-80200000D03*
D16*
X131000000Y-118600000D03*
X131000000Y-120200000D03*
D22*
X80100000Y-86800000D03*
X78500000Y-86800000D03*
X78500000Y-88300000D03*
X80100000Y-88300000D03*
X80100000Y-89800000D03*
X78500000Y-89800000D03*
X80800000Y-76800000D03*
X79200000Y-76800000D03*
X112550000Y-127700000D03*
X110950000Y-127700000D03*
X56000000Y-130000000D03*
X57600000Y-130000000D03*
X57600000Y-128500000D03*
X56000000Y-128500000D03*
D16*
X74200000Y-110150000D03*
X74200000Y-111750000D03*
D22*
X57600000Y-131500000D03*
X56000000Y-131500000D03*
D16*
X63250000Y-146500000D03*
X63250000Y-148100000D03*
X65250000Y-139550000D03*
X65250000Y-137950000D03*
D22*
X78500000Y-83800000D03*
X80100000Y-83800000D03*
X58000000Y-61700000D03*
X56400000Y-61700000D03*
X82800000Y-96000000D03*
X81200000Y-96000000D03*
D16*
X78250000Y-137950000D03*
X78250000Y-139550000D03*
D22*
X78500000Y-80800000D03*
X80100000Y-80800000D03*
D16*
X69900000Y-93100000D03*
X69900000Y-94700000D03*
D22*
X79750000Y-94450000D03*
X78150000Y-94450000D03*
D16*
X142500000Y-117400000D03*
X142500000Y-115800000D03*
X144100000Y-115800000D03*
X144100000Y-117400000D03*
X140900000Y-117400000D03*
X140900000Y-115800000D03*
X137700000Y-117400000D03*
X137700000Y-115800000D03*
X136100000Y-117400000D03*
X136100000Y-115800000D03*
X74000000Y-89800000D03*
X74000000Y-91400000D03*
D22*
X85050000Y-141400000D03*
X86650000Y-141400000D03*
X107850000Y-131300000D03*
X109450000Y-131300000D03*
X109450000Y-129800000D03*
X107850000Y-129800000D03*
D16*
X119900000Y-144900000D03*
X119900000Y-143300000D03*
D22*
X60550000Y-112300000D03*
X62150000Y-112300000D03*
X83950000Y-116150000D03*
X85550000Y-116150000D03*
X88450000Y-125600000D03*
X86850000Y-125600000D03*
D16*
X70150000Y-137950000D03*
X70150000Y-139550000D03*
D22*
X58650000Y-121650000D03*
X57050000Y-121650000D03*
X86700000Y-121250000D03*
X85100000Y-121250000D03*
X57600000Y-133250000D03*
X56000000Y-133250000D03*
X128700000Y-144100000D03*
X130300000Y-144100000D03*
D16*
X84700000Y-133250000D03*
X84700000Y-134850000D03*
X143900000Y-143600000D03*
X143900000Y-145200000D03*
X145400000Y-145200000D03*
X145400000Y-143600000D03*
D22*
X128700000Y-145600000D03*
X130300000Y-145600000D03*
X68450000Y-89750000D03*
X70050000Y-89750000D03*
X78500000Y-85300000D03*
X80100000Y-85300000D03*
D16*
X145700000Y-115800000D03*
X145700000Y-117400000D03*
D22*
X114050000Y-127700000D03*
X115650000Y-127700000D03*
D16*
X139300000Y-115800000D03*
X139300000Y-117400000D03*
X89400000Y-139500000D03*
X89400000Y-141100000D03*
D22*
X90900000Y-141000000D03*
X92500000Y-141000000D03*
X107850000Y-132800000D03*
X109450000Y-132800000D03*
X114050000Y-126200000D03*
X115650000Y-126200000D03*
X107850000Y-128300000D03*
X109450000Y-128300000D03*
D16*
X145700000Y-120600000D03*
X145700000Y-119000000D03*
X58750000Y-148100000D03*
X58750000Y-146500000D03*
D22*
X80100000Y-82300000D03*
X78500000Y-82300000D03*
D16*
X54800000Y-60200000D03*
X54800000Y-61800000D03*
D22*
X60500000Y-78600000D03*
X62100000Y-78600000D03*
X58900000Y-80300000D03*
X60500000Y-80300000D03*
X62600000Y-87450000D03*
X61000000Y-87450000D03*
D16*
X64400000Y-88700000D03*
X64400000Y-87100000D03*
D22*
X63800000Y-93250000D03*
X65400000Y-93250000D03*
X59250000Y-90950000D03*
X60850000Y-90950000D03*
D16*
X57150000Y-95800000D03*
X57150000Y-94200000D03*
D22*
X70050000Y-81700000D03*
X68450000Y-81700000D03*
D16*
X126600000Y-123200000D03*
X126600000Y-121600000D03*
X132600000Y-118600000D03*
X132600000Y-120200000D03*
X61750000Y-146500000D03*
X61750000Y-148100000D03*
X144800000Y-134250000D03*
X144800000Y-132650000D03*
D22*
X141550000Y-136350000D03*
X139950000Y-136350000D03*
D16*
X136700000Y-134250000D03*
X136700000Y-132650000D03*
D22*
X80800000Y-78400000D03*
X79200000Y-78400000D03*
D16*
X144800000Y-127350000D03*
X144800000Y-128950000D03*
D22*
X139950000Y-131000000D03*
X141550000Y-131000000D03*
D16*
X136700000Y-127350000D03*
X136700000Y-128950000D03*
D22*
X116100000Y-116700000D03*
X117700000Y-116700000D03*
D16*
X116100000Y-121500000D03*
X116100000Y-123100000D03*
D22*
X60550000Y-110800000D03*
X62150000Y-110800000D03*
D16*
X125000000Y-123200000D03*
X125000000Y-121600000D03*
D22*
X52900000Y-128500000D03*
X54500000Y-128500000D03*
X54500000Y-130000000D03*
X52900000Y-130000000D03*
X52900000Y-131500000D03*
X54500000Y-131500000D03*
D31*
X76245000Y-69415000D03*
X74975000Y-69415000D03*
X73705000Y-69415000D03*
X72435000Y-69415000D03*
X71165000Y-69415000D03*
X69895000Y-69415000D03*
X68625000Y-69415000D03*
X67355000Y-69415000D03*
X67355000Y-78185000D03*
X68625000Y-78185000D03*
X69895000Y-78185000D03*
X71165000Y-78185000D03*
X72435000Y-78185000D03*
X73705000Y-78185000D03*
X74975000Y-78185000D03*
X76245000Y-78185000D03*
D32*
X111000000Y-104500000D03*
X106000000Y-104500000D03*
X101000000Y-104500000D03*
X96000000Y-104500000D03*
X96000000Y-119500000D03*
X101000000Y-119500000D03*
X106000000Y-119500000D03*
X111000000Y-119500000D03*
D29*
X105000000Y-88500000D03*
X95000000Y-88500000D03*
X87500000Y-96000000D03*
X97500000Y-96000000D03*
X112500000Y-96000000D03*
X102500000Y-96000000D03*
D33*
X67590000Y-106615000D03*
X67590000Y-107885000D03*
X66320000Y-106615000D03*
X66320000Y-107885000D03*
X65050000Y-106615000D03*
X65050000Y-107885000D03*
X63780000Y-106615000D03*
X63780000Y-107885000D03*
X62510000Y-106615000D03*
X62510000Y-107885000D03*
D34*
X53900000Y-76250000D03*
X55000000Y-76250000D03*
X56100000Y-76250000D03*
X57200000Y-76250000D03*
X58300000Y-76250000D03*
X59400000Y-76250000D03*
X60500000Y-76250000D03*
X61600000Y-76250000D03*
X62700000Y-76250000D03*
X62700000Y-66750000D03*
X61600000Y-66750000D03*
X60500000Y-66750000D03*
X59400000Y-66750000D03*
X58300000Y-66750000D03*
X57200000Y-66750000D03*
X56100000Y-66750000D03*
X55000000Y-66750000D03*
X53900000Y-66750000D03*
D35*
X59200000Y-82300000D03*
X58700000Y-82300000D03*
X58200000Y-82300000D03*
X57700000Y-82300000D03*
X57200000Y-82300000D03*
X57200000Y-86700000D03*
X57700000Y-86700000D03*
X58200000Y-86700000D03*
X58700000Y-86700000D03*
X59200000Y-86700000D03*
D36*
X138550000Y-132725000D03*
X138550000Y-133375000D03*
X138550000Y-134025000D03*
X138550000Y-134675000D03*
X142950000Y-134675000D03*
X142950000Y-134025000D03*
X142950000Y-133375000D03*
X142950000Y-132725000D03*
X142950000Y-127425000D03*
X142950000Y-128075000D03*
X142950000Y-128725000D03*
X142950000Y-129375000D03*
X138550000Y-129375000D03*
X138550000Y-128725000D03*
X138550000Y-128075000D03*
X138550000Y-127425000D03*
D37*
X123325000Y-118550000D03*
X122675000Y-118550000D03*
X122025000Y-118550000D03*
X121375000Y-118550000D03*
X121375000Y-122950000D03*
X122025000Y-122950000D03*
X122675000Y-122950000D03*
X123325000Y-122950000D03*
X60775000Y-97200000D03*
X60125000Y-97200000D03*
X59475000Y-97200000D03*
X58825000Y-97200000D03*
X58825000Y-92800000D03*
X59475000Y-92800000D03*
X60125000Y-92800000D03*
X60775000Y-92800000D03*
D36*
X111200000Y-129275000D03*
X111200000Y-129925000D03*
X111200000Y-130575000D03*
X111200000Y-131225000D03*
X115600000Y-131225000D03*
X115600000Y-130575000D03*
X115600000Y-129925000D03*
X115600000Y-129275000D03*
D38*
X141500000Y-119450000D03*
X141500000Y-119950000D03*
X141500000Y-120450000D03*
X141500000Y-120950000D03*
D39*
X142150000Y-121600000D03*
X142650000Y-121600000D03*
X143150000Y-121600000D03*
X143650000Y-121600000D03*
D38*
X144300000Y-120950000D03*
X144300000Y-120450000D03*
X144300000Y-119950000D03*
X144300000Y-119450000D03*
D39*
X143650000Y-118800000D03*
X143150000Y-118800000D03*
X142650000Y-118800000D03*
X142150000Y-118800000D03*
D40*
X142900000Y-120200000D03*
D41*
X75550000Y-83440000D03*
X75050000Y-83440000D03*
X74550000Y-83440000D03*
X74050000Y-83440000D03*
X73550000Y-83440000D03*
X73050000Y-83440000D03*
D42*
X72440000Y-84050000D03*
X72440000Y-84550000D03*
X72440000Y-85050000D03*
X72440000Y-85550000D03*
X72440000Y-86050000D03*
X72440000Y-86550000D03*
D41*
X73050000Y-87160000D03*
X73550000Y-87160000D03*
X74050000Y-87160000D03*
X74550000Y-87160000D03*
X75050000Y-87160000D03*
X75550000Y-87160000D03*
D42*
X76160000Y-86550000D03*
X76160000Y-86050000D03*
X76160000Y-85550000D03*
X76160000Y-85050000D03*
X76160000Y-84550000D03*
X76160000Y-84050000D03*
D43*
X74900000Y-84700000D03*
X73700000Y-84700000D03*
X74900000Y-85900000D03*
X73700000Y-85900000D03*
D44*
X129450000Y-118300000D03*
X128800000Y-118300000D03*
X128150000Y-118300000D03*
X128150000Y-120500000D03*
X128800000Y-120500000D03*
X129450000Y-120500000D03*
D20*
X58000000Y-55000000D03*
D45*
X60540000Y-57540000D03*
X60540000Y-52460000D03*
X55460000Y-57540000D03*
X55460000Y-52460000D03*
D46*
X111900000Y-143650000D03*
X111900000Y-140050000D03*
X107300000Y-140050000D03*
X107300000Y-143650000D03*
X109600000Y-143650000D03*
X109600000Y-140050000D03*
X114200000Y-140050000D03*
X114200000Y-143650000D03*
D47*
X117750000Y-124550000D03*
X119650000Y-124550000D03*
X118700000Y-122250000D03*
X118700000Y-118300000D03*
X119650000Y-120600000D03*
X117750000Y-120600000D03*
D48*
X118400000Y-145250000D03*
X118400000Y-143350000D03*
X116100000Y-144300000D03*
D49*
X62750000Y-83200000D03*
X61800000Y-83200000D03*
X60850000Y-83200000D03*
X60850000Y-85800000D03*
X62750000Y-85800000D03*
X71750000Y-140600000D03*
X72700000Y-140600000D03*
X73650000Y-140600000D03*
X73650000Y-138000000D03*
X72700000Y-138000000D03*
X71750000Y-138000000D03*
D50*
X141950000Y-145025000D03*
X141950000Y-144375000D03*
X141950000Y-143725000D03*
X141950000Y-143075000D03*
X141950000Y-142425000D03*
X141950000Y-141775000D03*
X141950000Y-141125000D03*
X141950000Y-140475000D03*
X141950000Y-139825000D03*
X141950000Y-139175000D03*
X134950000Y-139175000D03*
X134950000Y-139825000D03*
X134950000Y-140475000D03*
X134950000Y-141125000D03*
X134950000Y-141775000D03*
X134950000Y-142425000D03*
X134950000Y-143075000D03*
X134950000Y-143725000D03*
X134950000Y-144375000D03*
X134950000Y-145025000D03*
D46*
X64050000Y-96200000D03*
X64050000Y-94800000D03*
X66150000Y-96200000D03*
X66150000Y-94800000D03*
D20*
X121500000Y-89500000D03*
X141500000Y-89500000D03*
X136500000Y-109500000D03*
X126500000Y-109500000D03*
D51*
G36*
X149873000Y-149873000D02*
X148127000Y-149873000D01*
X148127000Y-50127000D01*
X149873000Y-50127000D01*
X149873000Y-149873000D01*
X149873000Y-149873000D01*
G37*
X149873000Y-149873000D02*
X148127000Y-149873000D01*
X148127000Y-50127000D01*
X149873000Y-50127000D01*
X149873000Y-149873000D01*
G36*
X51873000Y-149873000D02*
X50127000Y-149873000D01*
X50127000Y-50127000D01*
X51873000Y-50127000D01*
X51873000Y-149873000D01*
X51873000Y-149873000D01*
G37*
X51873000Y-149873000D02*
X50127000Y-149873000D01*
X50127000Y-50127000D01*
X51873000Y-50127000D01*
X51873000Y-149873000D01*
M02*
