M48
;DRILL file {KiCad 201609280951+7255~55~ubuntu14.04.1-} date Mon Dec 19 07:10:38 2016
;FORMAT={-:-/ absolute / inch / decimal}
FMAT,2
INCH,TZ
T1C0.008
T2C0.012
T3C0.014
T4C0.016
T5C0.025
T6C0.031
T7C0.035
T8C0.039
T9C0.051
T10C0.059
T11C0.062
T12C0.063
T13C0.067
T14C0.047
T15C0.128
T16C0.142
%
G90
G05
M72
T1
X5.6024Y-4.7087
X5.6024Y-4.7559
X5.6496Y-4.7087
X5.6496Y-4.7559
T2
X2.1083Y-4.7047
X2.1322Y-4.8071
X2.1476Y-4.6516
X2.1634Y-4.811
X2.1673Y-4.9941
X2.1673Y-5.2461
X2.274Y-4.7047
X2.3091Y-5.2126
X2.313Y-4.7087
X2.313Y-4.8307
X2.3287Y-4.6339
X2.3287Y-5.1437
X2.3425Y-5.2126
X2.3445Y-4.4213
X2.3465Y-4.3622
X2.3543Y-4.252
X2.3661Y-4.0256
X2.378Y-4.1575
X2.3898Y-4.0059
X2.4124Y-4.1494
X2.4213Y-4.0807
X2.4429Y-4.9685
X2.4429Y-5.0039
X2.4429Y-5.2126
X2.4449Y-4.061
X2.4508Y-4.7106
X2.4526Y-4.1478
X2.4547Y-4.6614
X2.4639Y-4.8371
X2.4744Y-4.687
X2.4803Y-4.0492
X2.4862Y-4.4154
X2.4865Y-4.7534
X2.498Y-4.8878
X2.4981Y-4.7973
X2.501Y-4.8356
X2.5024Y-4.0751
X2.5039Y-4.311
X2.5079Y-5.0039
X2.5106Y-4.1042
X2.5315Y-4.6732
X2.5354Y-4.3091
X2.5807Y-4.3701
X2.6024Y-4.3445
X2.624Y-5.4941
X2.6594Y-5.4567
X2.6673Y-4.5335
X2.6673Y-4.6122
X2.6909Y-5.4075
X2.6909Y-5.4606
X2.7264Y-5.4941
X2.7323Y-5.628
X2.744Y-4.2554
X2.7461Y-4.315
X2.7476Y-4.2851
X2.7539Y-4.4429
X2.7539Y-5.2815
X2.7598Y-5.3878
X2.7677Y-5.622
X2.7717Y-4.1417
X2.7815Y-4.1102
X2.7894Y-4.6122
X2.8031Y-3.7736
X2.8051Y-4.1339
X2.8228Y-4.6122
X2.8248Y-5.3917
X2.8248Y-5.502
X2.8287Y-3.75
X2.8602Y-3.6437
X2.8602Y-3.8307
X2.8622Y-5.2835
X2.8622Y-5.4685
X2.8622Y-5.5768
X2.872Y-5.622
X2.8839Y-3.6654
X2.8858Y-3.8071
X2.8996Y-5.4685
X2.9055Y-3.4764
X2.9075Y-3.687
X2.9173Y-5.6063
X2.9469Y-5.561
X2.9508Y-4.5377
X2.9626Y-5.5295
X2.9764Y-4.3878
X2.9783Y-3.4606
X2.9843Y-4.5453
X2.9902Y-4.5807
X3.Y-3.2854
X3.002Y-4.4094
X3.0157Y-4.6024
X3.0217Y-5.5295
X3.0256Y-4.4331
X3.0335Y-3.2146
X3.0335Y-3.2874
X3.0348Y-4.6771
X3.0472Y-3.3898
X3.0472Y-3.4228
X3.0472Y-3.4528
X3.0531Y-5.3937
X3.0571Y-4.4213
X3.0748Y-4.2933
X3.0768Y-3.7559
X3.0807Y-5.5295
X3.0945Y-4.8465
X3.0965Y-4.9449
X3.1274Y-4.1476
X3.1274Y-4.1791
X3.1274Y-4.2102
X3.1274Y-4.2402
X3.1482Y-5.1942
X3.1535Y-4.124
X3.1752Y-4.2382
X3.1811Y-5.1969
X3.187Y-4.9449
X3.187Y-5.2283
X3.191Y-3.2699
X3.2343Y-5.2815
X3.2894Y-4.9862
X3.2913Y-4.8366
X3.2913Y-5.2421
X3.311Y-4.7894
X3.3346Y-5.3465
X3.3366Y-5.4016
X3.3937Y-5.3465
X3.4134Y-4.811
X3.4429Y-5.0335
X3.458Y-4.7425
X3.4592Y-5.0055
X3.4685Y-4.7126
X3.4902Y-4.6181
X3.4902Y-5.252
X3.5256Y-4.6693
X3.5315Y-4.624
X3.5531Y-5.0217
X3.563Y-5.189
X3.565Y-4.7264
X3.565Y-4.7563
X3.565Y-4.8091
X3.5906Y-5.8071
X3.5925Y-4.9606
X3.6122Y-5.189
X3.622Y-5.1555
X3.6457Y-5.1319
X3.687Y-4.502
X3.6969Y-4.685
X3.7028Y-4.8484
X3.7047Y-4.815
X3.7067Y-4.9193
X3.7087Y-4.75
X3.7106Y-4.7835
X3.7126Y-5.502
X3.7146Y-4.5177
X3.7146Y-5.4272
X3.7165Y-4.7165
X3.7362Y-5.2657
X3.7362Y-5.5906
X3.7402Y-4.8268
X3.7441Y-5.4429
X3.7677Y-5.5925
X3.7894Y-4.8465
X3.7894Y-4.8799
X3.7965Y-5.4915
X3.7972Y-5.6909
X3.8031Y-4.9331
X3.8031Y-5.2953
X3.8051Y-5.0571
X3.8287Y-5.685
X3.8314Y-5.495
X3.8346Y-5.3051
X3.8366Y-4.9331
X3.8366Y-5.0571
X3.8425Y-5.3346
X3.8445Y-4.5177
X3.8445Y-4.689
X3.872Y-5.1791
X3.876Y-5.3346
X3.876Y-5.4961
X3.8819Y-4.5177
X3.8819Y-4.689
X3.8976Y-5.2854
X3.9134Y-4.5177
X3.9134Y-4.689
X3.9244Y-5.0705
X3.927Y-4.9276
X3.9467Y-5.2854
X3.9567Y-5.061
X3.9589Y-4.9305
X3.9764Y-5.2894
X3.9779Y-5.0866
X3.9884Y-4.9164
X3.9921Y-5.3169
X4.0049Y-5.0584
X4.0102Y-4.9369
X4.0157Y-5.3366
X4.0236Y-4.687
X4.0256Y-4.5295
X4.0374Y-5.0571
X4.038Y-5.1787
X4.0394Y-5.2461
X4.0401Y-4.935
X4.0591Y-5.2736
X4.0775Y-4.83
X4.0846Y-5.2913
X4.0941Y-4.9189
X4.0984Y-5.1693
X4.1045Y-4.8577
X4.1048Y-5.1188
X4.1083Y-5.3169
X4.122Y-5.4764
X4.124Y-4.9189
X4.1319Y-5.2933
X4.1339Y-5.128
X4.1526Y-5.0938
X4.1549Y-4.9209
X4.1571Y-5.0591
X4.1575Y-5.3366
X4.187Y-5.0591
X4.187Y-5.3228
X4.1993Y-4.9203
X4.2028Y-5.2933
X4.2283Y-5.2717
X4.5374Y-5.8833
X5.6181Y-4.8346
X5.6969Y-4.8346
T3
X2.9016Y-3.3346
X2.9016Y-3.3819
X2.9488Y-3.3346
X2.9488Y-3.3819
T4
X2.0079Y-2.0079
X2.0079Y-2.2047
X2.0079Y-2.4016
X2.0079Y-2.5984
X2.0079Y-2.7953
X2.0079Y-2.9921
X2.0079Y-3.189
X2.0079Y-3.3858
X2.0079Y-3.5827
X2.0079Y-3.7795
X2.0079Y-3.9764
X2.0079Y-4.1732
X2.0079Y-4.3701
X2.0079Y-4.5669
X2.0079Y-4.7638
X2.0079Y-4.9606
X2.0079Y-5.1575
X2.0079Y-5.3543
X2.0079Y-5.5512
X2.0079Y-5.748
X2.1102Y-2.3701
X2.122Y-3.0669
X2.1654Y-2.7165
X2.1654Y-2.874
X2.1732Y-3.4488
X2.2047Y-5.7992
X2.248Y-3.3386
X2.248Y-4.626
X2.252Y-5.878
X2.2598Y-3.4646
X2.2717Y-3.6535
X2.2835Y-2.7165
X2.2835Y-2.874
X2.2874Y-3.5827
X2.2913Y-3.8976
X2.2953Y-5.878
X2.3189Y-3.1142
X2.3327Y-2.4705
X2.3386Y-5.878
X2.378Y-2.4882
X2.3819Y-2.5453
X2.3819Y-5.7224
X2.3835Y-2.3717
X2.4016Y-2.7165
X2.4016Y-2.874
X2.4016Y-3.4843
X2.4055Y-3.2283
X2.4311Y-2.4193
X2.4311Y-5.878
X2.4685Y-2.4567
X2.4685Y-2.5276
X2.4882Y-3.0945
X2.4902Y-5.878
X2.5059Y-2.7224
X2.5059Y-2.8051
X2.5059Y-2.9193
X2.5531Y-5.878
X2.5551Y-3.2323
X2.563Y-3.1142
X2.5669Y-3.8189
X2.6024Y-3.2756
X2.6102Y-3.4193
X2.6181Y-3.5276
X2.6555Y-5.8622
X2.689Y-3.3622
X2.7343Y-3.5768
X2.7461Y-4.1969
X2.7697Y-3.3839
X2.7717Y-3.8012
X2.7736Y-3.6122
X2.7953Y-3.2323
X2.8169Y-4.3681
X2.8327Y-3.8622
X2.8425Y-5.128
X2.8524Y-4.3898
X2.8701Y-5.1555
X2.9213Y-4.1693
X2.9213Y-4.2992
X2.9488Y-5.2106
X2.9744Y-4.9016
X3.002Y-4.9311
X3.0039Y-4.872
X3.0768Y-3.6102
X3.0787Y-2.6102
X3.094Y-5.2409
X3.1378Y-2.5669
X3.1496Y-3.7795
X3.1614Y-3.815
X3.1811Y-2.9803
X3.1831Y-3.2106
X3.1831Y-3.3878
X3.1831Y-3.4469
X3.1831Y-3.5059
X3.189Y-3.8386
X3.1929Y-2.6102
X3.2106Y-5.7776
X3.2894Y-4.872
X3.3091Y-4.9075
X3.315Y-5.8248
X3.3169Y-5.7776
X3.3524Y-4.9213
X3.3602Y-5.6339
X3.372Y-5.6732
X3.4094Y-4.5728
X3.4232Y-5.6594
X3.4626Y-5.8071
X3.4646Y-5.6811
X3.4685Y-5.5689
X3.5157Y-5.1102
X3.5157Y-5.6811
X3.5177Y-5.065
X3.5236Y-4.9449
X3.5571Y-4.689
X3.5591Y-5.6811
X3.5728Y-5.2854
X3.5886Y-5.4567
X3.6063Y-5.6811
X3.6417Y-5.4449
X3.6457Y-5.6811
X3.6614Y-4.689
X3.6969Y-5.065
X3.9016Y-5.5728
X4.061Y-4.5276
X4.061Y-4.689
X4.1004Y-4.5295
X4.1024Y-4.687
X4.252Y-5.6969
X4.2539Y-5.8012
X4.2657Y-5.5728
X4.2697Y-5.6555
X4.3051Y-5.8209
X4.315Y-5.6063
X4.3484Y-5.8031
X4.3504Y-5.2283
X4.3839Y-5.8563
X4.4055Y-5.6063
X4.4071Y-5.7972
X4.4429Y-5.7323
X4.4961Y-5.6063
X4.5709Y-4.8898
X4.5807Y-5.628
X4.5945Y-5.0276
X4.752Y-4.9213
X4.7618Y-5.8022
X4.7657Y-5.7126
X4.7795Y-4.6102
X4.8031Y-5.8031
X4.8071Y-5.7126
X4.8445Y-5.8031
X4.8484Y-5.7126
X4.8858Y-5.8031
X4.8878Y-5.7126
X4.9843Y-4.7402
X5.0256Y-5.6713
X5.0256Y-5.7323
X5.0512Y-4.6142
X5.1575Y-4.622
X5.1791Y-4.8799
X5.2205Y-4.624
X5.313Y-5.752
X5.3583Y-4.6654
X5.3819Y-5.1181
X5.3819Y-5.3268
X5.3819Y-5.5571
X5.3819Y-5.6319
X5.4843Y-4.5157
X5.5472Y-4.5157
X5.6102Y-4.5157
X5.6654Y-5.5571
X5.6654Y-5.6043
X5.6732Y-4.5157
X5.7008Y-5.1181
X5.7008Y-5.3268
X5.7244Y-5.6043
X5.7362Y-4.5157
X5.7795Y-4.685
X5.8661Y-2.0079
X5.8661Y-2.2047
X5.8661Y-2.4016
X5.8661Y-2.5984
X5.8661Y-2.7953
X5.8661Y-2.9921
X5.8661Y-3.189
X5.8661Y-3.3858
X5.8661Y-3.5827
X5.8661Y-3.7795
X5.8661Y-3.9764
X5.8661Y-4.1732
X5.8661Y-4.3701
X5.8661Y-4.5669
X5.8661Y-4.7638
X5.8661Y-4.9606
X5.8661Y-5.1575
X5.8661Y-5.3543
X5.8661Y-5.5512
X5.8661Y-5.748
T5
X2.461Y-4.1974
X2.461Y-4.2474
X2.511Y-4.1974
X2.511Y-4.2474
X2.561Y-4.1974
X2.561Y-4.2474
X2.611Y-4.1974
X2.611Y-4.2474
X2.661Y-4.1974
X2.661Y-4.2474
T6
X3.4449Y-3.7795
X3.7402Y-3.4843
X3.7795Y-4.1142
X3.7795Y-4.7047
X3.8386Y-3.7795
X3.9764Y-4.1142
X3.9764Y-4.7047
X4.0354Y-3.7795
X4.1339Y-3.4843
X4.1732Y-4.1142
X4.1732Y-4.7047
X4.3701Y-4.1142
X4.3701Y-4.7047
X4.4291Y-3.7795
X5.4331Y-4.7835
X5.4331Y-4.8622
T7
X2.5646Y-2.5057
X2.6546Y-2.5057
X2.6946Y-2.2457
X2.7346Y-2.3157
X2.7746Y-2.2457
X2.8146Y-2.3157
X2.8546Y-2.2457
X2.8946Y-2.3157
X2.9346Y-2.2457
X2.9746Y-2.3157
X3.0146Y-2.5057
X3.1046Y-2.5057
T8
X4.937Y-5.1772
X4.937Y-5.4764
T9
X4.9862Y-2.7185
X5.2224Y-2.7185
T10
X2.2835Y-2.1654
X4.7835Y-3.5236
X4.9803Y-4.311
X5.374Y-4.311
X5.5709Y-3.5236
T11
X2.5146Y-2.2807
X3.1546Y-2.2807
T12
X3.8366Y-2.7185
T13
X2.1835Y-2.0654
X2.1835Y-2.2654
X2.3835Y-2.0654
X2.3835Y-2.2654
T14
X5.3504Y-4.7244
X5.3504Y-4.9213
T15
X2.5846Y-2.1457
X3.0846Y-2.1457
T16
X3.4252Y-2.3425
X5.6299Y-2.3425
T0
M30
